/* XPM */
static char *ba35d5b40f57428fd868ac61ca3aa2eaD1viouXaAylEi1wi[] = {
/* columns rows colors chars-per-pixel */
"32 32 12 1 ",
"  c #FFEC00",
". c white",
"X c #9F9F9F",
"o c #808080",
"O c gray75",
"+ c #3F3F3F",
"@ c black",
"# c gray50",
"$ c gray12",
"% c gray19",
"& c #C0C0C0",
"* c gray6",
/* pixels */
"                                ",
"                                ",
"                                ",
"   ..........................   ",
"   ..........................   ",
"   ..........................   ",
"   ..........................   ",
"   .......XooooooooooO.......   ",
"   .......+@@@@@@@@@@#.......   ",
"   .......+@$########O.......   ",
"   .......+@+................   ",
"   .......+@+................   ",
"   .......+@+................   ",
"   .......+@+................   ",
"   .......+@%&&&&&&&&........   ",
"   .......+@@@@@@@@@@........   ",
"   .......+@*++++++++........   ",
"   .......+@+................   ",
"   .......+@+................   ",
"   .......+@+................   ",
"   .......+@+................   ",
"   .......+@+................   ",
"   .......+@+................   ",
"   .......+@@@@@@@@@@+.......   ",
"   .......+@@@@@@@@@@+.......   ",
"   ..........................   ",
"   ..........................   ",
"   ..........................   ",
"   ..........................   ",
"                                ",
"                                ",
"                                "
};
