/* XPM */
static char *result[] = {
/* columns rows colors chars-per-pixel */
"512 32 30 1 ",
"  c #FFEC00",
". c white",
"X c #DFDFDF",
"o c gray81",
"O c gray75",
"+ c #EFEFEF",
"@ c #6F6F6F",
"# c black",
"$ c #202020",
"% c #909090",
"& c #808080",
"* c #9F9F9F",
"= c #C0C0C0",
"- c gray25",
"; c gray50",
": c gray56",
"> c gray6",
", c #A0A0A0",
"< c #3F3F3F",
"1 c #2F2F2F",
"2 c gray19",
"3 c #5F5F5F",
"4 c #AFAFAF",
"5 c #606060",
"6 c gray69",
"7 c gray12",
"8 c #101010",
"9 c gray31",
"0 c gray44",
"q c #505050",
/* pixels */
"                                                                                                                                                                                                                                                                                                                                                                                                                                                                                                                                ",
"                                                                                                                                                                                                                                                                                                                                                                                                                                                                                                                                ",
"                                                                                                                                                                                                                                                                                                                                                                                                                                                                                                                                ",
"   ..........................      ..........................      ..........................      ..........................      ..........................      ..........................      ..........................      ..........................      ..........................      ..........................      ..........................      ..........................      ..........................      ..........................      ..........................      ..........................   ",
"   ..........................      ..........................      ..........................      ..........................      ..........................      ..........................      ..........................      ..........................      ..........................      ..........................      ..........................      ..........................      ..........................      ..........................      ..........................      ..........................   ",
"   ..........................      ..........................      ..........................      ..........................      ..........................      ..........................      ..........................      ..........................      ..........................      ..........................      ..........................      ..........................      ..........................      ..........................      ..........................      ...........Xo.............   ",
"   ..........................      ..........................      ..........................      ..........................      ..........................      ..........................      ..........................      ...........Xo.............      ..........................      ............O+............      ..........................      ..........................      ..........................      ..........................      ..........................      ...........@#$%X..........   ",
"   ........X&&&&&&&&&&*......      ............O+............      ..........................      ..........................      ..........................      ..........................      ..........................      ...........@#$%X..........      ..............o====+......      ..........*-#;............      ........+&................      ..........................      ..........................      ..................X+......      ..............o$*.........      ...........:>###-,+.......   ",
"   ........O##########<......      ..........*-#;............      ........+&................      ..........................      ..........................      ..................X+......      ..............o$*.........      ...........:>###-,+.......      ........1##########O......      ........*$##>:............      .......+2#3...............      ..........................      ..........................      .................;#;......      ..............@##*........      .............43>###56.....   ",
"   ........O##;;;;;;;;*......      ........*$##>:............      .......+2#3...............      ..........................      ..........................      .................;#;......      ..............@##*........      .............43>###56.....      ........######1<<##O......      .....+%$##7*..............      .......3#>+...............      .....X&X..................      ..........................      .................O#8+.....      ...............;##%.......      ...............+*9###8o...   ",
"   ........O##...............      .....+%$##7*..............      .......3#>+...............      .....X&X..................      ..........................      .................O#8+.....      ...............;##%.......      ...............+*9###8o...      ........o........##;......      ...+&8##7*................      ......3#>o................      .....:#9..................      ....................*&X...      ..................<#;.....      ................*##5......      ..................X<##+...   ",
"   ........O##...............      ...+&8##7*................      ......3#>o................      .....:#9..................      ....................*&X...      ..................<#;.....      ................*##5......      ..................X<##+...      .................##;......      ...1##<O..................      .....@#>o.................      .....1#4..................      ....X0@....X&*......<#O...      ...........o......O#$.....      .................*##5.....      ...................7#3....   ",
"   ........O##...............      ...1##<O..................      .....@#>o.................      .....1#4..................      ....X0@....X&*......<#O...      ...........o......O#$.....      .................*##5.....      ...................7#3....      .................7#;......      ...*##O...................      ....*##O......*...........      ....X#>.....;5X...........      ....O#<.....##......<#O...      ..........9#o......<#*....      ..................o>#q+...      ..................o##4....   ",
"   ........O##...............      ...*##O...................      ....*##O......*...........      ....X#>.....;5X...........      ....O#<.....##......<#O...      ..........9#o......<#*....      ..................o>#q+...      ..................o##4....      .................<#;......      ....7#-.......O5..........      ...*##*......3#@..........      ....@#3.....7#o...........      ....O#<.....##......<#O...      ..........;#3......*#$....      ..........:........o>#2+..      .........o+.......@#>.....   ",
"   ........O##========X......      ....7#-.......O5..........      ...*##*......3#@..........      ....@#3.....7#o...........      ....O#<.....##......<#O...      ..........;#3......*#$....      ..........:........o>#2+..      .........o+.......@#>.....      .................<#;......      ....:##X....*2##*.........      ..4##*......3#>o..........      ....7#o....4#7......O6....      ....O#<.....##......<#O...      ....*O....+##X......7#*...      .........3#5........;##3..      .........1#q,.....>#3.....   ",
"   ........O##########;......      ....:##X....*2##*.........      ..4##*......3#>o..........      ....7#o....4#7......O6....      ....O#<.....##......<#O...      ....*O....+##X......7#*...      .........3#5........;##3..      .........1#q,.....>#3.....      .................<#3......      ....+>#3..*$##7;+.........      ..<##5.....*##o...........      ...O#7.....3#;......1#*...      ....o#<.....##......@#*...      ...:#9.....3#3......*#2...      .........*>#5......*##1+..      .........9###85O.4##o.....   ",
"   ........O##<<<<<<<<*......      ....+>#3..*$##7;+.........      ..<##5.....*##o...........      ...O#7.....3#;......1#*...      ....o#<.....##......@#*...      ...:#9.....3#3......*#2...      .........*>#5......*##1+..      .........9###85O.4##o.....      .........;0-----8##<......      .....;##0$##7*............      ..+1##5...*##*............      ...3#;.....>#X.....X#>+...      .....##.....##......;#;...      ...+>#X....X##X.....O##O..      ..........o>#-+...o##7+...      ..........+*1###$2#7......   ",
"   ........O##...............      .....;##0$##7*............      ..+1##5...*##*............      ...3#;.....>#X.....X#>+...      .....##.....##......;#;...      ...+>#X....X##X.....O##O..      ..........o>#-+...o##7+...      ..........+*1###$2#7......      .........##########<......      .....+>###1*..............      ...+9##q+*##*.......XX....      ...>#X....*#1......:#3....      .....##.....7#X.....;#;...      ....3#3.....3#;...*2###9..      ...........o>#2+.o8#>o....      .............X;7###;......   ",
"   ........O##...............      .....+>###1*..............      ...+9##q+*##*.......XX....      ...>#X....*#1......:#3....      .....##.....7#X.....;#;...      ....3#3.....3#;...*2###9..      ...........o>#2+.o8#>o....      .............X;7###;......      .........;:OOOOO+;#<......      ......3##4................      .....3##28#;.......+28o...      ..*##5O...9#*......7#4....      .....##.....<#O.....;#;...      ....X##X....o#8+*$###7*...      ....+4......o1#248#>o.....      ................;##X......   ",
"   ........O##...............      ......3##4................      .....3##28#;.......+28o...      ..*##5O...9#*......7#4....      .....##.....<#O.....;#;...      ....X##X....o#8+*$###7*...      ....+4......o1#248#>o.....      ................;##X......      .................;#<......      ......X##;................      ......3###3.......+2#1+...      ..@####$0o##+.....o#7.....      .....##...o=2#%,&&&&-#;...      .....3#@.....<#8###1*.....      ....9#*......+1####O......      ................<#1.......   ",
"   ........O##...............      ......X##;................      ......3###3.......+2#1+...      ..@####$0o##+.....o#7.....      .....##...o=2#%,&&&&-#;...      .....3#@.....<#8###1*.....      ....9#*......+1####O......      ................<#1.......      .................;#<......      .......3#8+........*......      .......:##8o......<#1+....      ...o@7#####2X.....@#@.....      .....#################;...      .....X#8+..+&8###<O.......      ....*##0......X###*.......      ......40X......X##*.......   ",
"   ........O##...............      .......3#8+........*......      .......:##8o......<#1+....      ...o@7#####2X.....@#@.....      .....#################;...      .....X#8+..+&8###<O.......      ....*##0......X###*.......      ......40X......X##*.......      .................;##......      .......X##;.....+&8#O.....      ........*##8o....3#>o.....      ......43>####q,+..>#o.....      .....1############1<<<@...      ......<#;X5####9O.........      .....*##5....+2##*........      ......9##2%+...:##+.......   ",
"   ........O##...............      .......X##;.....+&8#O.....      ........*##8o....3#>o.....      ......43>####q,+..>#o.....      .....1############1<<<@...      ......<#;X5####9O.........      .....*##5....+2##*........      ......9##2%+...:##+.......      .................;##......      ........9#$...X&8##<o.....      .........*>#84..3#>o......      ........+*9####85&#1......      .....*;4OOOOo.............      ......O#8####3X...........      ......4>#5...3##;.........      ......o3>###q,.1#9........   ",
"   ........O###########......      ........9#$...X&8##<o.....      .........*>#84..3#>o......      ........+*9####85&#1......      .....*;4OOOOo.............      ......O#8####3X...........      ......4>#5...3##;.........      ......o3>###q,.1#9........      .........:&&&&0--$##......      ........O##*X5###<O.......      ..........o>##*:#>o.......      ...........+:1#####:......      ..........................      .......<##>@X.............      .......o>#2+3##3..........      .........49###8##*........   ",
"   ........O###########......      ........O##*X5###<O.......      ..........o>##*:#>o.......      ...........+:1#####:......      ..........................      .......<##>@X.............      .......o>#2+3##3..........      .........49###8##*........      .........###########......      .........<#8###3o.........      ...........o>####*........      ..............X@7##X......      ..........................      .......O>;+...............      ........o>#8##3...........      ...........+*1##>.........   ",
"   ..........................      .........<#8###3o.........      ...........o>####*........      ..............X@7##X......      ..........................      .......O>;+...............      ........o>#8##3...........      ...........+*1##>.........      .........@;;;;:OOOOO......      .........O###3X...........      ............o1##*.........      .................O:.......      ..........................      ........+.................      .........+1##1............      ..............X;;.........   ",
"   ..........................      .........O###3X...........      ............o1##*.........      .................O:.......      ..........................      ........+.................      .........+1##1............      ..............X;;.........      ..........................      ..........<;X.............      .............+1:..........      ..........................      ..........................      ..........................      ..........+11+............      ..........................   ",
"   ..........................      ..........<;X.............      .............+1:..........      ..........................      ..........................      ..........................      ..........+11+............      ..........................      ..........................      ..........................      ..............+...........      ..........................      ..........................      ..........................      ...........++.............      ..........................   ",
"   ..........................      ..........................      ..............+...........      ..........................      ..........................      ..........................      ...........++.............      ..........................      ..........................      ..........................      ..........................      ..........................      ..........................      ..........................      ..........................      ..........................   ",
"                                                                                                                                                                                                                                                                                                                                                                                                                                                                                                                                ",
"                                                                                                                                                                                                                                                                                                                                                                                                                                                                                                                                ",
"                                                                                                                                                                                                                                                                                                                                                                                                                                                                                                                                "
};
