/* XPM */
static char *_a42f85fc86b4db88e8bbc6db366b5b5xX2bz1M5I4c6kR5t[] = {
/* columns rows colors chars-per-pixel */
"512 32 65 1 ",
"  c #FFEC00",
". c white",
"X c #EFEFEF",
"o c #808080",
"O c #9F9F9F",
"+ c gray81",
"@ c #6F6F6F",
"# c #606060",
"$ c #DFDFDF",
"% c gray75",
"& c gray50",
"* c gray25",
"= c #A0A0A0",
"- c gray19",
"; c black",
": c #AFAFAF",
"> c #101010",
", c #909090",
"< c #202020",
"1 c #5F5F5F",
"2 c gray12",
"3 c #7E7E7E",
"4 c gray6",
"5 c #232323",
"6 c gray14",
"7 c gray88",
"8 c #2F2F2F",
"9 c #3F3F3F",
"0 c #505050",
"q c gray69",
"w c #C3C3C3",
"e c #C0C0C0",
"r c gray44",
"t c gray56",
"y c #040404",
"u c gray47",
"i c gray97",
"p c gray87",
"a c gray31",
"s c #B7B7B7",
"d c #FEFEFE",
"f c gray39",
"g c #010101",
"h c gray66",
"j c #FFED07",
"k c #FFED08",
"l c #090909",
"z c #8D8D8D",
"x c #181818",
"c c #646464",
"v c #CDCDCD",
"b c #FDFDFD",
"n c #797979",
"m c gray",
"M c gray99",
"N c #FBFBFB",
"B c #F9F9F9",
"V c #F8F8F8",
"C c #FFED0B",
"Z c #FFEC02",
"A c #FFEC04",
"S c #FFEC03",
"D c #FFEC05",
"F c #FFED0F",
"G c #FFEF22",
/* pixels */
"                                                                                                                                                                                                                                                                                                                                                                                                                                                                                                                                ",
"                                                                                                                                                                                                                                                                                                                                                                                                                                                                                                                                ",
"                                                                                                                                                                                                                                                                                                                                                                                                                                                                                                                                ",
"   ..........................      ..........................      ..........................      ..........................      ..........................      ..........................      ..........................      ..........................      ..........................      ..........................      ..........................      ..........................      ..........................      ..........................      ..........................      ..........................   ",
"   ..........................      ..........................      ..........................      ..........................      ..........................      ..........................      ..........................      ..........................      ..........................      ..........................      ..........................      ..........................      ..........................      ..........................      ..........................      ..........................   ",
"   ..........................      ..........................      .........Xo...............      ..........................      ..........................      ..........................      ...............O+.........      ...........@#$............      ..........................      ............%#X...........      ..........&X..............      ..........................      ..........................      ..........................      ..........................      ..........O*=.............   ",
"   ..........................      ............X=*...........      ........X-;@..............      ..........................      ..........................      ..........................      ..............:;>+........      ..........X;;;*=..........      ..........................      .........X,<;;O...........      .........1;-X.............      .......X$.................      ..........................      ..........................      ..............O#..........      ..........2;;>o$..........   ",
"   .......O3&oooooooo%.......      ..........$#>;;O..........      .......X-;4+..............      ......567.................      ..........................      ................$**.......      ..............X8;>+.......      ...........$14;;<o$.......      .......&;;;;;;;;;;9.......      .......+#>;;;;<...........      ........1;;;-X............      .......1;0%...............      ..........................      ..................$.......      .............O;;#.........      .........%;;2;;;0q........   ",
"   .......9;;;;;;;;;;&.......      ........O*;;;9O...........      ......X-;4+...............      .....w;;w.................      ..........................      .................4;+......      ...............X8;>+......      .............XO2;;;#%.....      .......&;;;;;;;;;;9.......      .....O*;;;9::;;%..........      .......1;;1;;-X...........      ......X>;;;<,X............      ..........................      ...............X=-;$......      ............O;;;;#........      .........1;2.+1;;;<,X.....   ",
"   .......9;2&&&&&&&&%.......      .....$o<;;41$.............      .....X-;4+................      .....9;5..................      ....................+eX...      .................@;1......      ................X8;>+.....      ................%1;;;9....      ................&;9.......      ...:>;;4@$...2;1..........      ......1;;O.O;;-X..........      ......O;82;;;;#+..........      ..........................      .............$r>;;;&......      ...........O;;8%4;#.......      ........$;;&...Xt2;;2.....   ",
"   .......9;9................      ....%;;;8OX...............      ....X-;4+......$..........      .....y;t....w>u...........      ....%;9....+*@......9;%...      ..........+X.....$;>X.....      .................X8;>+....      ..................$;;&i...      ................&;9.......      ...p;8O......&;;X.........      .....1;;O...O;;-X.........      ......2;O.:a;;;;-=........      .....&ooooooooooooooo&s...      ...........:*;;;;8;>......      ..........O;;8X.+4;#......      ........&;;X......:a&.....   ",
"   .......9;9................      ....X4;a..................      ...X-;4+......1>+.........      ....u;y.....-;5...........      ....%;9....%;9......9;%...      .........@;O......9;t.....      ..........%.......X8;>+...      ..................&;;$d...      ................&;9.......      ....$........$;;&.........      ....1;;O.....O;;-X........      .....%;2....$@4;;;>r$.....      .....;;;;;;;;;;;;;;;;;3...      ........$o<;;;41$.8;O.....      .........O;;8X...+4;#.....      ........2;1...............   ",
"   .......9;9................      .....@;>X........X........      ..X-;4+......1;4+.........      ....>;f....7g;h......7....      ....%;9....%;9......9;%...      .........O;<......:;<.....      .........1;O.......X8;>+..      ..................2;1.....      ................&;9.......      ..............1;<.........      ...1;;O.......t;;-X.......      .....1;&......1;2;;;;0q...      .....;;;;;;;;;;;;;;;;;&...      ......%#;;;;;tX...O;*.....      ........O;;2X.....+4;#....      .......:;;rX..............   ",
"   .......9;9................     j.....$;;O.....Xo<t........      ..X8;;O.....1;4+..........      ...w;g7....f;>......f;9...      ....%;9....%;9......9;%...      ..+0&.....2;%......2;%....      .........1;;O......X-;;@..      ........O-=X.....:;;%.....      ................&;9.......      ..............:;;:........      ..X8;O.......X-;;;-X......      ....$;;$.....X;;$+14;;;9..      .....;;......9;%....&;&...      ...X=<;;;;18;O....X4;$....      .......O;;;;O......+4;#...      .......9;;;>#+............   ",
"   .......9;-eeeeeeee........     k......9;<...%#;;;9........      ...X8;;O...1;4+...........      ...-;5.....l;f......l;f...      ....%;9....%;9......9;%...      ..%;<.....&;1......&;1....      ..........1;;O....X-;;1d..      ........a;;>r$...9;2......      ................&;9.......      ............%#;;;*........      ...X:.......X-;4&;;-X.....      ....&;1......t;a...Xt4;t..      .....;;......9;%....&;&...      ..%>;;;2&X.O;<.....@;1....      ......O;;8t;;O......+4O...      ......$;;@9;;;*=..........   ",
"   .......9;;;;;;;;;;........     k......:;;:=-;;;a%.........      ....X8;;O.1;4+............      ..7g;h....h;g......h;g....      ....%;9....%;9......9;%...      ...2;:....$;;X.....X;;$...      ...........1;;O..X-;;1....      .........O9;;;*q$;;O......      ........@*******<;9.......      .........X=<;;;9;;$.......      ...........X-;4+.O;;-X....      ....2;%......2;%....$;;X..      .....;;......9;%....&;&...      ...4;8:.....2;%....$;>X...      .....O;;8X.O;;O......X....      ......@;4X.$@4;;>t........   ",
"   .......9;499999999........     j.......2;;;;4&$...........      .....X8;;*;4+.......X*+...      ..f;;;6h..5;9......5;-....      ....%;9....%;9......9;%...      ...z;*.....1;&...$o<;;&...      ....++......1;;OX-;;1.....      ...........+14;;;;4X......      ........9;;;;;;;;;9.......      .......$#>;;2&$X4;@.......      ..........X-;4+...O;;-X...      ...:;2......:;2.....@;1...      .....;;......9;%....&;&...      ...&;1......&;1.....9;O...      ....O;;8X...O;;O..........      .....X>;1....XO8;1........   ",
"   .......9;9................      .......&;;9O..............      ......X8;;4+.......X-;9...      ..tx;;;;lc;;w.....7g;w....      ....%;9....%;9......9;%...      ...X4;$....%;<.%#;;;;8:...      ...$>>+......1;;<;;1......      .............Xt2;;1.......      ........+%%%%%%%1;9.......      .......1;;9O....1;>X......      .........X-;4+.....O;;9...      ...XtO......a;t.....4;+...      .....;;......9;%....&;&...      ...$;;X.....$;;X....O;<...      ...O;;8X.....O;;O.........      .....O;;$.......+$........   ",
"   .......9;9................      .......$;;&...............      .......X8;;O......X-;8X...      ....w9g;;;;yw.....0;x.....      ....%;-eeee,;-eeeeee-;%...      ....1;@.....2;>;;;;1%.....      ....1;>+......1;;;1.......      ...............O;;+.......      ................&;9.......      .......+1$......+;;O......      .........9;4+......1;4v...      ...........$;;X....O;8....      .....;;......9;%....&;&...      ....a;t......1;&.....t$...      ..X4;>X.......O;;:........      .....8;9..................   ",
"   .......9;9................      ........1;<...............      ........X8;;O....X-;8Xb...      .......f>;;;;>n...y;u.....      ....%;;;;;;;;;;;;;;;;;%...      ....+;>...+#>;;;2&X.......      .....1;>+....X-;;1........      .....$%........8;9........      ................&;9.......      .................9;-......      .........+2+......1;4+d...      ...........O;1.....9;O....      .....;;......9;%....&;&...      ....%;<......%;<..........      ...+4;#........O8X........      ....%;;O..................   ",
"   .......9;9................      ........%;;:.......$o.....      .........X8;;O..X-;8X.....      ..b......w5g;;;y*f;y......      ....%;;;;;;;;;;;;;;;;;%...      .....9;OO*;;;;a:..........      ......1;>+..X-;;1.........      .....1;<,X....+;;O........      ................&;9.......      ................$*;;+.....      .................1;4+.....      ............$$....+;4.....      .....;;......9;%....&;&...      .....2;:......81X.........      ....+4;#..................      ....1;;#%.................   ",
"   .......9;9................      .........2;*.....:0;;O....      ..........X8;;OX-;8X......      ...........7fy;;;;;9......      ..........................      .....O;;;;;4@$............      .......1;>+X-;;1..........      .....t2;;;#+..1;4.........      ................&;9.......      ..............:*;;;9%.....      ................1;4+......      ..................1;@.....      .....99......+%X....%&m...      .....t;a..................      .....+4;#.................      ....%a;;;-=X..............   ",
"   .......9;9................      .........O;;$.X,<;;;1%....      ...........X8;;<;8X.......      ..............t5;;;7......      ..........................      ......4;;8O...............      ........1;>-;;1...........      .......:a;;;-=;;&.........      .......$oooooooo*;9.......      ...........Xo<;;41+.......      ...............1;4+.......      ..................2;$.....      ..........................      .....X;;$.................      ......+4;#................      ......$&2;;>#$............   ",
"   .......9;;;;;;;;;;9.......      .........X4;##;;;2tX......      ............X8;;8X........      ................w99.......      ..........................      ......&1+.................      .........1;;;1............      .........$@4;;;;$.........      .......%;;;;;;;;;;9.......      .........$#;;;2tX.........      ..............1;4+........      ..................X:......      ..........................      ......1;@.................      .......+4;#...............      .........O9;;;*$..........   ",
"   .......9;;;;;;;;;;9d......      ..........1;;;;a:.........      .............X88X.........      ..........................      ..........................      ..........................      ..........1;1.............      ............O9;a..........      .......$&&&&&&&&&&O.......      .........$;;a%............      ..............14+.........      ..........................      ..........................      ......+@$.................      ........+4;#..............      ...........$142...........   ",
"   ..........................      ..........$;4@$...........      ..............XX..........      ..........................      ..........................      ..........................      ...........O..............      ..............++..........      ............MM.....N......      ..........:$..............      ...............$..........      ..................N.......      ..........................      ........N.................      .........+41..............      .............X+...........   ",
"   ..........................      ...........:..............      ..........................      ..........................      ..........................      ........B.................      ..........................      ..........................      ..........................      ..........b...............      ..........................      ..........................      ..........................      ..........................      ..........$...............      ..........................   ",
"   ..........................      ..........................      ..........................      ..........................      ..........................      ..........................      ..........................      ..........................      ..........................      ..........................      ..............V...........      ..........................      ..........................      ..........................      ...........bb.............      ..........................   ",
"   ..........................      ..........................      ..............B...........      ..........................      ..........................      ..........................      ...........NM.............      ..........................      ..........................      ..........................      ..........................      ..........................      ..........................      ..........................      ..........................      ..........................   ",
"                                             CCCkZAAA                          SDDD                                                                                                                          FGGG                                                                                                                                                                                                                                                                                                               ",
"                                                                                                                                                                                                                                                                                                                                                                                                                                                                                                                                ",
"                                                                                                                                                                                                                                                                                                                                                                                                                                                                                                                                "
};
