/* XPM */
static char *c37c4ba1285c4ee6b6405f72159ca5b2R0Gkxam4rSuB0Qmb[] = {
/* columns rows colors chars-per-pixel */
"32 32 22 1 ",
"  c #FFEC00",
". c white",
"X c #9F9F9F",
"o c #808080",
"O c #AFAFAF",
"+ c gray75",
"@ c #3F3F3F",
"# c black",
"$ c #101010",
"% c #DFDFDF",
"& c gray50",
"* c #5F5F5F",
"= c gray6",
"- c gray81",
"; c gray31",
": c gray25",
"> c #6F6F6F",
", c #202020",
"< c #EFEFEF",
"1 c gray56",
"2 c #2F2F2F",
"3 c gray12",
/* pixels */
"                                ",
"                                ",
"                                ",
"   ..........................   ",
"   ..........................   ",
"   ..........................   ",
"   ..........................   ",
"   .......XooO.......Xo+.....   ",
"   .......@##$%......@#&.....   ",
"   .......@###*......@#&.....   ",
"   .......@#=##%.....@#&.....   ",
"   .......@#@@#*.....@#&.....   ",
"   .......@#@+##-....@#&.....   ",
"   .......@#@.;#:....@#&.....   ",
"   .......@#@.%##+...@#&.....   ",
"   .......@#@..*#:...@#&.....   ",
"   .......@#@..%##O..@#&.....   ",
"   .......@#@...>#,..@#&.....   ",
"   .......@#@...<=#X.@#&.....   ",
"   .......@#@....&#,.@#&.....   ",
"   .......@#@....<=#1@#&.....   ",
"   .......@#@.....&#$2#&.....   ",
"   .......@#@......3###&.....   ",
"   .......@#@......X###&.....   ",
"   .......@#@.......3##&.....   ",
"   ..........................   ",
"   ..........................   ",
"   ..........................   ",
"   ..........................   ",
"                                ",
"                                ",
"                                "
};
