/* XPM */
static char *result[] = {
/* columns rows colors chars-per-pixel */
"512 32 30 1 ",
"  c #FFEC00",
". c white",
"X c gray81",
"o c #EFEFEF",
"O c gray75",
"+ c #101010",
"@ c gray44",
"# c #3F3F3F",
"$ c black",
"% c #9F9F9F",
"& c gray19",
"* c #202020",
"= c #5F5F5F",
"- c #808080",
"; c #AFAFAF",
": c #C0C0C0",
"> c #909090",
", c #DFDFDF",
"< c gray31",
"1 c gray6",
"2 c gray50",
"3 c gray25",
"4 c #505050",
"5 c #A0A0A0",
"6 c gray56",
"7 c gray12",
"8 c #606060",
"9 c gray69",
"0 c #2F2F2F",
"q c #6F6F6F",
/* pixels */
"                                                                                                                                                                                                                                                                                                                                                                                                                                                                                                                                ",
"                                                                                                                                                                                                                                                                                                                                                                                                                                                                                                                                ",
"                                                                                                                                                                                                                                                                                                                                                                                                                                                                                                                                ",
"   ..........................      ..........................      ..........................      ..........................      ..........................      ..........................      ..........................      ..........................      ..........................      ..........................      ..........................      ..........................      ..........................      ..........................      ..........................      ..........................   ",
"   ..........................      ..........................      ..........................      ..........................      ..........................      ..........................      ..........................      ..........................      ..........................      ..........................      ..........................      ..........................      ..........................      ..........................      ..........................      ..........................   ",
"   ..........................      ..........................      ..........................      ..........................      ..........................      ..........................      ..........................      ..........................      ..........................      ..............Xo..........      ..........Xo..............      ..........................      ..........................      ..................o.......      .............oX...........      .........O+@X.............   ",
"   ..........................      ..............Xo..........      ..........Xo..............      ..........................      ..........................      ..................o.......      .............oX...........      .........O+@X.............      ..........................      .............#$%..........      .........o&&o.............      ..........................      ..........................      ................%*=.......      ............o&+X..........      .........=$$$.............   ",
"   ......%--;.......%-O......      .............#$%..........      .........o&&o.............      ..........................      ..........................      ................%*=.......      ............o&+X..........      .........=$$$.............      .................O:o......      .............=$*..........      .........;$$&o............      ......;>,.................      ..........................      .............o-+$$$o......      ............<$$+;.........      .........1$$$O............   ",
"   ......#$$+,......#$2......      .............=$*..........      .........;$$&o............      ......;>,.................      ..........................      .............o-+$$$o......      ............<$$+;.........      .........1$$$O............      ......#332.......$$O......      .............,$$%.........      ..........%$$*X...........      ......<$$45o..............      ............o:::::>---....      ...........,-+$$$$$6......      ...........=$$$$O.........      ........;$$7$;......X.....   ",
"   ......#$$$=......#$2......      .............,$$%.........      ..........%$$*X...........      ......<$$45o..............      ............o:::::>---....      ...........,-+$$$$$6......      ...........=$$$$O.........      ........;$$7$;......X.....      ......$$$+o......$$O......      .....o........#$*.........      ...........%1$+X..........      ......=1$$$+89............      ....%33+$$$$$$$$$$$$$$....      .........,8$$$$=0$7o......      ..........=$$0$1..........      ........<$#<$2.....o$+X...   ",
"   ......#$1$$,.....#$2......      .....o........#$*.........      ...........%1$+X..........      ......=1$$$+89............      ....%33+$$$$$$$$$$$$$$....      .........,8$$$$=0$7o......      ..........=$$0$1..........      ........<$#<$2.....o$+X...      ......#$$$=......$$2......      ...o-+4o......O$$;........      ............X1$+O.........      .......o%<$$$$+@X.........      ....%$$$$$$$$$$$$$$$$$O...      .......X8$$$12,6$$X.......      .........6$$=2$<..........      .......o$$%2$=.....%$$o...   ",
"   ......#$##$=.....#$2......      ...o-+4o......O$$;........      ............X1$+O.........      .......o%<$$$$+@X.........      ....%$$$$$$$$$$$$$$$$$O...      .......X8$$$12,6$$X.......      .........6$$=2$<..........      .......o$$%2$=.....%$$o...      ......#$#$$O.....#$2......      ...0$$$*X......#$3........      .............X1$$%........      ..........o60$$$$*>,......      ....,222;OOOOX...,4$$1X...      .....O3$$$12o.X$$6........      ........%$$<.#$6..........      .......%$$o6$#.....0$=....   ",
"   ......#$#O$$X....#$2......      ...0$$$*X......#$3........      .............X1$$%........      ..........o60$$$$*>,......      ....,222;OOOOX...,4$$1X...      .....O3$$$12o.X$$6........      ........%$$<.#$6..........      .......%$$o6$#.....0$=....      ......#$2=$&.....#$2......      ...%$$1$$>.....O$$O.......      ..............X0$$%.......      .............,q7$$$$35o...      ................2+$$=o....      ...;3$$$7%...o*$<.........      .......%$$0o.$$X..........      .......0$=.O$+....,$$;....   ",
"   ......#$#.<$3....#$2......      ...%$$1$$>.....O$$O.......      ..............X0$$%.......      .............,q7$$$$35o...      ................2+$$=o....      ...;3$$$7%...o*$<.........      .......%$$0o.$$X..........      .......0$=.O$+....,$$;....      ......#$2,1$6....#$2......      ....7$<<$$4o....7$3.......      ...%*85o.......o0$$-......      ................O=1$$$$...      ..............O*$$0O......      ..6$$$7%.....<$7o.........      ......X+$0o.O$1......%&o..      ......,$$;.,$$....2$1.....   ",
"   ......#$#.,$$O...#$2......      ....7$<<$$4o....7$3.......      ...%*85o.......o0$$-......      ................O=1$$$$...      ..............O*$$0O......      ..6$$$7%.....<$7o.........      ......X+$0o.O$1......%&o..      ......,$$;.,$$....2$1.....      ......#$=.2$+o...#$2......      ....6$$,6$$*X...%$$,......      ..;$$$$$&@9o....o0$$8.....      ................X:>&$$<...      ............,3$$1%........      ..o1#O......6$$X..........      .....X+$7o..2$<.....%$$=..      ......2$1...$$X...7$=.....   ",
"   ......#$#..=$3...#$2......      ....6$$,6$$*X...%$$,......      ..;$$$$$&@9o....o0$$8.....      ................X:>&$$<...      ............,3$$1%........      ..o1#O......6$$X..........      .....X+$7o..2$<.....%$$=..      ......2$1...$$X...7$=.....      ......=$#..7$q...#$=......      ....o1$q.O1$$>...7$=......      ..#$$17$$$$$&@9...=$$8....      .........X:-@3*$$$$$$$%...      ..........o-$$$qo.........      ...,.......X$$6.......,...      ....X+$1X...#$6....X+$0o..      ......7$=...0$O..X$$X.....   ",
"   ......#$#..,$$;..#$2......      ....o1$q.O1$$>...7$=......      ..#$$17$$$$$&@9...=$$8....      .........X:-@3*$$$$$$$%...      ..........o-$$$qo.........      ...,.......X$$6.......,...      ....X+$1X...#$6....X+$0o..      ......7$=...0$O..X$$X.....      ......2$#..O$$X..=$#......      .....2$+o.o#$$4o.%$$,.....      ..o0$$8,%=7$$$$$3-:=$$&o..      ...X-@3*$$$$$$$$$7#q2Oo...      .........;*$$#X...........      ..........o*$<......X8$O..      ...o&$1X...o$$X...X+$7o...      .....X$$X...#$2..=$7......   ",
"   ......#$#...q$*..#$2......      .....2$+o.o#$$4o.%$$,.....      ..o0$$8,%=7$$$$$3-:=$$&o..      ...X-@3*$$$$$$$$$7#q2Oo...      .........;*$$#X...........      ..........o*$<......X8$O..      ...o&$1X...o$$X...X+$7o...      .....X$$X...#$2..=$7......      ......2$#...#$3..2$#......      .....o1$2...2$$*Xo1$=.....      ...o<$$8...,%=1$$$$$$$$2..      ...1$$$$$$0#q2OX..........      .......X3$$7%.............      ..........<$7o....O3$$$<..      ..o&$$O....;$7...X+$1X....      .....=$7....2$q..1$2......   ",
"   ......#$#...o1$%.#$2......      .....o1$2...2$$*Xo1$=.....      ...o<$$8...,%=1$$$$$$$$2..      ...1$$$$$$0#q2OX..........      .......X3$$7%.............      ..........<$7o....O3$$$<..      ..o&$$O....;$7...X+$1X....      .....=$7....2$q..1$2......      ......2$#...,$$%.2$#......      ......=$+o...O1$$>2$$o....      .....=$$4o.....X6<1$$$0...      ..%$$$=O,.................      .....o@$$$2o..............      .........6$$X...%3$$$7%...      ..2$$%.....q$=..o&$1X.....      .....1$2....6$#.;$$,......   ",
"   ......#$#....2$*.#$2......      ......=$+o...O1$$>2$$o....      .....=$$4o.....X6<1$$$0...      ..%$$$=O,.................      .....o@$$$2o..............      .........6$$X...%3$$$7%...      ..2$$%.....q$=..o&$1X.....      .....1$2....6$#.;$$,......      ......2$#....2$*o2$#......      ......,$$6....o#$$3$$2....      ......=$$&o........X6=o...      ..q$$$$&>,................      .....1$$#,.o:::::>----O...      ........X$$6..%*$$$0%.....      ...q%......0$%.o&$$O......      ....;$$,....O$*.<$0.......   ",
"   ......#$#....o1$6#$2......      ......,$$6....o#$$3$$2....      ......=$$&o........X6=o...      ..q$$$$&>,................      .....1$$#,.o:::::>----O...      ........X$$6..%*$$$0%.....      ...q%......0$%.o&$$O......      ....;$$,....O$*.<$0.......      ......2$$....o7$22$#......      .......=$*......2$$$$+o...      .......6$$&o..............      ...Xq7$$$$45o.............      .....$$$$$$$$$$$$$$$$$2...      .......o+$<o>*$$$#O.......      ..........o$$,.0$$%.......      ....=$0.....,$$o$$%.......   ",
"   ......#$#.....2$+0$2......      .......=$*......2$$$$+o...      .......6$$&o..............      ...Xq7$$$$45o.............      .....$$$$$$$$$$$$$$$$$2...      .......o+$<o>*$$$#O.......      ..........o$$,.0$$%.......      ....=$0.....,$$o$$%.......      ......O$$.....;$$=$$......      .......,$$%......O1$$7X...      ........%$$+X.............      ......;=1$$$+89...........      .....0$$$$$$$$$$$$0###q...      .......#$1@+$$$<O.........      ..........;$7.=$$%........      ....q7%......$$q$$o.......   ",
"   ......#$#......7$$$2......      .......,$$%......O1$$7X...      ........%$$+X.............      ......;=1$$$+89...........      .....0$$$$$$$$$$$$0###q...      .......#$1@+$$$<O.........      ..........;$7.=$$%........      ....q7%......$$q$$o.......      ......O$$......#$+$$......      ........<$*.......o=%.....      .........%1$+X............      ........o%<$$$$+@X........      .....%2;OOOOX.............      ......X$$$$$$=,...........      ..........q$==$$2.........      .............0$+$<........   ",
"   ......#$#......%$$$2......      ........<$*.......o=%.....      .........%1$+X............      ........o%<$$$$+@X........      .....%2;OOOOX.............      ......X$$$$$$=,...........      ..........q$==$$2.........      .............0$+$<........      ......O$$......X$$$$......      ........O$$;..............      ..........X1$+O...........      ...........o60$$$$*X......      ..........................      .......#$$1q,.............      ..........0$+$$=..........      .............#$$$%........   ",
"   ......#$#.......7$$2......      ........O$$;..............      ..........X1$+O...........      ...........o60$$$$*X......      ..........................      .......#$$1q,.............      ..........0$+$$=..........      .............#$$$%........      ......O$$.......q$$$......      .........#$3..............      ...........X1$$%..........      ..............,q7$$,......      ..........................      .......O12o...............      .........o$$$$=...........      .............6$$1.........   ",
"   ..........................      .........#$3..............      ...........X1$$%..........      ..............,q7$$,......      ..........................      .......O12o...............      .........o$$$$=...........      .............6$$1.........      ......X##o......oOOO......      .........O$$O.............      ............X0$$,.........      .................O2.......      ..........................      ........o.................      .........o0$$0............      ..............,22.........   ",
"   ..........................      .........O$$O.............      ............X0$$,.........      .................O2.......      ..........................      ........o.................      .........o0$$0............      ..............,22.........      ..........................      ..........#2,.............      .............o06..........      ..........................      ..........................      ..........................      ..........o00o............      ..........................   ",
"   ..........................      ..........#2,.............      .............o06..........      ..........................      ..........................      ..........................      ..........o00o............      ..........................      ..........................      ..........................      ..............o...........      ..........................      ..........................      ..........................      ...........oo.............      ..........................   ",
"   ..........................      ..........................      ..............o...........      ..........................      ..........................      ..........................      ...........oo.............      ..........................      ..........................      ..........................      ..........................      ..........................      ..........................      ..........................      ..........................      ..........................   ",
"                                                                                                                                                                                                                                                                                                                                                                                                                                                                                                                                ",
"                                                                                                                                                                                                                                                                                                                                                                                                                                                                                                                                ",
"                                                                                                                                                                                                                                                                                                                                                                                                                                                                                                                                "
};
