/* XPM */
static char *_a64bbdc99d547e0ae0d65fbc6f2c8b6YzMAHvVFsbS9I3f1[] = {
/* columns rows colors chars-per-pixel */
"32 32 29 1 ",
"  c #FFEC00",
". c white",
"X c #DFDFDF",
"o c #808080",
"O c #505050",
"+ c gray25",
"@ c gray69",
"# c #EFEFEF",
"$ c #6F6F6F",
"% c black",
"& c #3F3F3F",
"* c #5F5F5F",
"= c gray75",
"- c gray81",
"; c gray50",
": c #2F2F2F",
"> c gray56",
", c #9F9F9F",
"< c gray44",
"1 c gray19",
"2 c #C0C0C0",
"3 c #909090",
"4 c #AFAFAF",
"5 c gray6",
"6 c #101010",
"7 c gray31",
"8 c #A0A0A0",
"9 c #606060",
"0 c gray12",
/* pixels */
"                                ",
"                                ",
"                                ",
"   ..........................   ",
"   ..........................   ",
"   ..........................   ",
"   ..........XoO+++o@#.......   ",
"   .........$%%%%%%%%&.......   ",
"   ........$%%*=--=;:&.......   ",
"   .......#%%>.......X.......   ",
"   .......=%%#...............   ",
"   .......,%%................   ",
"   .......=%%<...............   ",
"   ........&%%1o2#...........   ",
"   ........X&%%%%%13#........   ",
"   ..........4*5%%%%64.......   ",
"   .............X,7%%6X......   ",
"   ................4%%*......   ",
"   .................&%&......   ",
"   .................*%:......   ",
"   .................:%*......   ",
"   .......=+8.....#9%%4......   ",
"   .......=%%%+O9+6%%*.......   ",
"   .......#$:%%%%%%0,........   ",
"   ...........====...........   ",
"   ..........................   ",
"   ..........................   ",
"   ..........................   ",
"   ..........................   ",
"                                ",
"                                ",
"                                "
};
