/* XPM */
static char *result[] = {
/* columns rows colors chars-per-pixel */
"512 32 30 1 ",
"  c #FFEC00",
". c white",
"X c gray81",
"o c #C0C0C0",
"O c #DFDFDF",
"+ c #808080",
"@ c #505050",
"# c gray25",
"$ c gray69",
"% c #EFEFEF",
"& c #A0A0A0",
"* c gray19",
"= c black",
"- c #6F6F6F",
"; c #3F3F3F",
": c #101010",
"> c gray75",
", c #9F9F9F",
"< c gray56",
"1 c #2F2F2F",
"2 c #202020",
"3 c #AFAFAF",
"4 c #5F5F5F",
"5 c gray50",
"6 c gray12",
"7 c gray44",
"8 c gray6",
"9 c gray31",
"0 c #606060",
"q c #909090",
/* pixels */
"                                                                                                                                                                                                                                                                                                                                                                                                                                                                                                                                ",
"                                                                                                                                                                                                                                                                                                                                                                                                                                                                                                                                ",
"                                                                                                                                                                                                                                                                                                                                                                                                                                                                                                                                ",
"   ..........................      ..........................      ..........................      ..........................      ..........................      ..........................      ..........................      ..........................      ..........................      ..........................      ..........................      ..........................      ..........................      ..........................      ..........................      ..........................   ",
"   ..........................      ..........................      ..........................      ..........................      ..........................      ..........................      ..........................      ..........................      ..........................      ..........................      ..........................      ..........................      ..........................      ..........................      ..........................      ..........................   ",
"   ..........................      ..........................      ..........................      ..........................      ..........................      ..........................      ..........................      ..........................      ..........................      ..........................      ..........................      ..........................      ..........................      ..........................      ..........................      ..........................   ",
"   ..........................      ..........................      ..........................      ..........................      ..........................      ..........................      ..........................      ..........................      ..........................      ..........................      ..........................      ..........................      ..........................      ..........................      ..........................      .............Xoo..........   ",
"   ........O+@###+$%.........      ..........................      ..........................      ..........................      ..........................      ..........................      ..........................      .............Xoo..........      ............X$++&o........      .........%$+@.............      ..........................      ..........................      ..........................      ..........................      ..........................      ...........X*====@&.......   ",
"   .......-========;.........      .........%$+@.............      ..........................      ..........................      ..........................      ..........................      ..........................      ...........X*====@&.......      .........%+:=======#......      .......>@====,............      ........<#%...............      ..........................      ..........................      ................XO........      ..............>+$.........      ..........X===1;===23.....   ",
"   ......-==4>XX>51;.........      .......>@====,............      ........<#%...............      ..........................      ..........................      ................XO........      ..............>+$.........      ..........X===1;===23.....      .........1==6455-1==......      .....%7==8955O............      ......%#==1...............      ..........................      ..........................      .............%7:==2X......      ............X*====7.......      ..........;=8>...3;==@%...   ",
"   .....%==<.......O.........      .....%7==8955O............      ......%#==1...............      ..........................      ..........................      .............%7:==2X......      ............X*====7.......      ..........;=8>...3;==@%...      ........-==<......O-......      .....1=8<%................      .....%*=6,................      .....%*7O.................      ...............X+0+X......      ............%2=====:,.....      ...........O:==86==*O.....      .........X==<......<8=9...   ",
"   .....>==%.................      .....1=8<%................      .....%*=6,................      .....%*7O.................      ...............X+0+X......      ............%2=====:,.....      ...........O:==86==*O.....      .........X==<......<8=9...      ........1=4...............      ....-=8%..................      ....%*=9%.................      .....9=1%.................      .......%......-=====0%....      ............9==;3>9=:O....      ...........;==,..X1=:X....      .........3==X.......X8,...   ",
"   .....,==..................      ....-=8%..................      ....%*=9%.................      .....9=1%.................      .......%......-=====0%....      ............9==;3>9=:O....      ...........;==,..X1=:X....      .........3==X.......X8,...      ........==5...............      ....8=3...................      ....-=;...................      ....>=8O.......%X.........      .....6=,.....5===1===5....      ............==9....4=@....      ..........%==4.....4=2%...      .........>==3........X%...   ",
"   .....>==7.................      ....8=3...................      ....-=;...................      ....>=8O.......%X.........      .....6=,.....5===1===5....      ............==9....4=@....      ..........%==4.....4=2%...      .........>==3........X%...      ........8=-...............      ...X==X...................      ...X=8O...................      ....;=,......X#===7%......      ....%==.....%:=1O..5==O...      ...........>==>....%8=>...      ..........>==>......;=@...      .........%8=*%............   ",
"   ......;==*+o%.............      ...X==X...................      ...X=8O...................      ....;=,......X#===7%......      ....%==.....%:=1O..5==O...      ...........>==>....%8=>...      ..........>==>......;=@...      .........%8=*%............      ........;==>..............      ....==,...................      ...5=4.......3@:*0%.......      ...X=6......>:=====:O.....      ....>=;.....3==X....;=<...      .....>O....X==>.....<=4...      ..........%==<......%8=3..      ..........<==2>...........   ",
"   ......O;=====*q%..........      ....==,...................      ...5=4.......3@:*0%.......      ...X=6......>:=====:O.....      ....>=;.....3==X....;=<...      .....>O....X==>.....<=4...      ..........%==<......%8=3..      ..........<==2>...........      ........>===@qoO..........      ....;=:>.X&0*==:0%........      ...;=5.....O#=====:X......      ...<=5.....%:==-<4==#.....      ....3=-.....-=6.....,=5...      ....9=>.....==,.....O=:...      ...........;=2%......5=9..      ...........5===7%.........   ",
"   ........348====:3.........      ....;=:>.X&0*==:0%........      ...;=5.....O#=====:X......      ...<=5.....%:==-<4==#.....      ....3=-.....-=6.....,=5...      ....9=>.....==,.....O=:...      ...........;=2%......5=9..      ...........5===7%.........      .........,8=====20O.......      ....X============:%.......      ...5=*....,:==6-1==*%.....      ...9=>.....;==X...<==X....      ....5=5.....;=4.....>=;...      ....;=>.....1=-......6=O..      ...........X==-......O1%..      ............>6==2X........   ",
"   ...........O,9==:O........      ....X============:%.......      ...5=*....,:==6-1==*%.....      ...9=>.....;==X...<==X....      ....5=5.....;=4.....>=;...      ....;=>.....1=-......6=O..      ...........X==-......O1%..      ............>6==2X........      ..........%<9======,......      .....38====1-<,;==4.......      ...3==@X>#==8<...,==<.....      ...;=>....3==<.....1=>....      ....3=4.....8=5.....>=;...      ....-=5.....-=;......;=>..      ............-==3..........      .............%-==:O.......   ",
"   ..............3==4........      .....38====1-<,;==4.......      ...3==@X>#==8<...,==<.....      ...;=>....3==<.....1=>....      ....3=4.....8=5.....>=;...      ....-=5.....-=;......;=>..      ............-==3..........      .............%-==:O.......      ..............O3-8=:O.....      ......%>>>......9==.......      ....-======;O.....1=4.....      ...4=4...%:=1......;=>....      ....O=*....O==>.....>=;...      ....3=*.....,==......;=<..      .....X3.....%1=2%.........      ...............>8=9.......   ",
"   ...............;=;........      ......%>>>......9==.......      ....-======;O.....1=4.....      ...4=4...%:=1......;=>....      ....O=*....O==>.....>=;...      ....3=*.....,==......;=<..      .....X3.....%1=2%.........      ...............>8=9.......      .................X==<.....      ................X==>......      .....5===8,.......5=9.....      ...,==7OX*==X......8=%....      .....8=>...5==......<=4...      .....8=O....>==%.....<O...      ....%*2......X==5.........      .......X........<==.......   ",
"   ...............4=1........      ................X==>......      .....5===8,.......5=9.....      ...,==7OX*==X......8=%....      .....8=>...5==......<=4...      .....8=O....>==%.....<O...      ....%*2......X==5.........      .......X........<==.......      ..................;=5.....      ................%==>......      ......%>X.........1=,.....      ....;======<......O=1.....      .....5==7&7==4......9=<...      .....5=#....,==...........      ....%6=5......4=*.........      .......;0.......<==.......   ",
"   ...............1=4........      ................%==>......      ......%>X.........1=,.....      ....;======<......O=1.....      .....5==7&7==4......9=<...      .....5=#....,==...........      ....%6=5......4=*.........      .......;0.......<==.......      ..................6=5.....      ................<==.......      .................3=8%.....      ....%5===8,.......4=5.....      ......1=====8O.....O==X...      ......6=0%.>:=6...........      .....>==X.....5==.........      ......%==*X.....;=1.......   ",
"   .....>#&.....%0==3........      ................<==.......      .................3=8%.....      ....%5===8,.......4=5.....      ......1=====8O.....O==X...      ......6=0%.>:=6...........      .....>==X.....5==.........      ......%==*X.....;=1.......      .........%.......,==X.....      ...............>==5.......      ................X:=3......      ......%>>%.......X==O.....      .......-1=69O......X55....      ......>8======3...........      ......5=:>....;=1.........      .......>6==0&oo@==3.......   ",
"   .....>===#@0#:==4.........      ...............>==5.......      ................X:=3......      ......%>>%.......X==O.....      .......-1=69O......X55....      ......>8======3...........      ......5=:>....;=1.........      .......>6==0&oo@==3.......      .........527&ooq#==4......      .............X@==4........      ...............>:=4.......      ................%*=5......      ..........................      .......X1===8>............      .......4==7oo#==<.........      ........%58======4........   ",
"   .....%-1======6,..........      .............X@==4........      ...............>:=4.......      ................%*=5......      ..........................      .......X1===8>............      .......4==7oo#==<.........      ........%58======4........      .........5========5%......      ........X++@2==83.........      .............%7==4........      ...............%*=6%......      ..........................      .........><>..............      ........<8=====4..........      ..........%,4;6;>.........   ",
"   .........>>>>.............      ........X++@2==83.........      .............%7==4........      ...............%*=6%......      ..........................      .........><>..............      ........<8=====4..........      ..........%,4;6;>.........      ..........>5-;;5,O........      ........%====65%..........      ............5===5.........      ...............X46X.......      ..........................      ..........................      .........O-6=;,...........      ..........................   ",
"   ..........................      ........%====65%..........      ............5===5.........      ...............X46X.......      ..........................      ..........................      .........O-6=;,...........      ..........................      ..........................      .........,5,O.............      ............%1;X..........      ..........................      ..........................      ..........................      ..........................      ..........................   ",
"   ..........................      .........,5,O.............      ............%1;X..........      ..........................      ..........................      ..........................      ..........................      ..........................      ..........................      ..........................      .............%............      ..........................      ..........................      ..........................      ..........................      ..........................   ",
"   ..........................      ..........................      .............%............      ..........................      ..........................      ..........................      ..........................      ..........................      ..........................      ..........................      ..........................      ..........................      ..........................      ..........................      ..........................      ..........................   ",
"                                                                                                                                                                                                                                                                                                                                                                                                                                                                                                                                ",
"                                                                                                                                                                                                                                                                                                                                                                                                                                                                                                                                ",
"                                                                                                                                                                                                                                                                                                                                                                                                                                                                                                                                "
};
