/* XPM */
static char *fc325b6d1fba46fbce2bd9ca8b6ee661fd9fBJPPwOJCIXbo[] = {
/* columns rows colors chars-per-pixel */
"32 32 16 1 ",
"  c #FFEC00",
". c white",
"X c #EFEFEF",
"o c gray50",
"O c #808080",
"+ c #DFDFDF",
"@ c gray75",
"# c gray56",
"$ c gray6",
"% c black",
"& c gray31",
"* c #101010",
"= c gray81",
"- c #3F3F3F",
"; c #2F2F2F",
": c #6F6F6F",
/* pixels */
"                                ",
"                                ",
"                                ",
"   ..........................   ",
"   ..........................   ",
"   ..........................   ",
"   ..........................   ",
"   ..XoO+......@OO+......@O#.   ",
"   ...$%#......&%%#......&%&.   ",
"   ...&%&......$$%&......$%#.   ",
"   ...#%*.....=%&$*.....=%%=.   ",
"   ...=%%=....#%o&%=....#%$..   ",
"   ....$%#....&%@o%#....&%&..   ",
"   ....&%&....$%.@%&....$%#..   ",
"   ....#%*...=%-..%*...=%%=..   ",
"   ....=%%=..#%o..-%=..#%$...   ",
"   .....$%#..&%@..o%#..&%&...   ",
"   .....&%&..$%...@%&..$%#...   ",
"   .....#%*.=%-....%*.=%%=...   ",
"   .....=%%=#%o....-%=#%$....   ",
"   ......$%#&%@....o%#&%&....   ",
"   ......&%&$%.....@%&$%#....   ",
"   ......#%*%-.....X%*%%=....   ",
"   ......=%%%o......;%%$.....   ",
"   .......$%%@......:%%&.....   ",
"   ..........................   ",
"   ..........................   ",
"   ..........................   ",
"   ..........................   ",
"                                ",
"                                ",
"                                "
};
