/* XPM */
static char *_0971c077071476186cca7df180ad23b3WzaPte4fIuRItvn[] = {
/* columns rows colors chars-per-pixel */
"512 32 80 1 ",
"  c #FFEC00",
". c #AFA200",
"X c black",
"o c #8F8400",
"O c #100F00",
"+ c #9F9300",
"@ c #DFCE00",
"# c #B0A300",
"$ c #EFDD00",
"% c #3F3A00",
"& c #0F0E00",
"* c #605900",
"= c #BFB100",
"- c #302C00",
"; c #706800",
": c #5F5800",
"> c #CFC000",
", c #C0B200",
"< c #A09400",
"1 c #807600",
"2 c #7F7600",
"3 c #504A00",
"4 c white",
"5 c gray50",
"6 c #3F3F3F",
"7 c gray75",
"8 c #101010",
"9 c #9F9F9F",
"0 c #EFEFEF",
"q c #AFAFAF",
"w c #6F6F6F",
"e c #2F2F2F",
"r c gray19",
"t c gray44",
"y c gray69",
"u c #808080",
"i c #606060",
"p c gray25",
"a c #DFDFDF",
"s c gray81",
"d c #202020",
"f c gray12",
"g c gray6",
"h c #505050",
"j c #C0C0C0",
"k c #5F5F5F",
"l c gray56",
"z c #909090",
"x c #A0A0A0",
"c c gray31",
"v c gainsboro",
"b c #FEFEFE",
"n c #4F4900",
"m c #201E00",
"M c gray97",
"N c gray48",
"B c #1F1D00",
"V c gray74",
"C c #2F2B00",
"Z c #403B00",
"A c #FFED07",
"S c #6F6700",
"D c #FFED08",
"F c #CDCDCD",
"G c #ECECEC",
"H c #FDFDFD",
"J c gray",
"K c gray99",
"L c #FBFBFB",
"P c gray92",
"I c #F9F9F9",
"U c #F8F8F8",
"Y c #4E4E4E",
"T c #FFED0B",
"R c #FFEC02",
"E c #FFEC04",
"W c #FFEC03",
"Q c #FFEC05",
"! c #FFED0F",
"~ c #FFEF22",
/* pixels */
"                                                                                  .XXo                      oXXO+                      @#$                                                                                                                                                                                                                                                                                                                                                                                      ",
"                                                                                   %XO$                      .&XX*$                    =XX-;#$                                                                 $                                                                                                                                                                                                                                                                                                                ",
"                                                         @=                        @XX:                       @%XX->                   =XXXXXX-;#$                             $,<12                         @3O>                                                                                                                                                                                                                                                                                                               ",
"   44444444444444444444444444      4444444444444444444445X644      444444444444444445XX744444      44444444444445XX8944444444      444440qweXXXXXXrty04444444      4444447yuipXXXXXXa44444444      44444444458XX8s44444444444      4444447i744444444444444444      44444444444444444444444444      44444444444444444444444444      44444444444444444444444444      44444444444444444444444444      44444444444444444444444444      44444444444444444444444444      44444444444444444444444444      44444444444444444444444444   ",
"   44444444444444444444444444      4444444444444444444445Xd44      444444444444444444fXr44444      444444444444447gXXh0444444      4444444440qweXXXXXXrty0444     >juip8XXXXXXXXXXXXw44444444      44444447dXXXXXa44444444444      4444408XXk4444444444444444      44444444444444444444444444      44444444444444444444444444      44444444444444444444444444      44444444444444444444444444      44444444444444444444444444      44444444444444444444444444      44444444444444444444444444      444444444ls444444444444444   ",
"   44444444444444444444444444      444444444444444444444qXX44      4444444440z04444447XXl4444      44444444444444406XXds44444      44444444444440qweXXXXX7444    $&XXXXXXXXe65977dXg744444444      44444ahXXXweX5444444444444      444446XXXw4444444444444444      44444444444444444444444444      44444444444444444444444444      44444444444444444444444444      44444444444444444444444444      44444444444444444444444444      44444444444444444444444444      4444444444444qi44444444444      4444444446Xl44444444444444   ",
"   44444444444444444444444444      4444444444440xh4444447XXs4      444444440rXdq444444cX80444      44444444444444444lXXXz4444      444444444444444440wXXX7444     :Xf6w57a44444lXXc0444444444      444458XX6sqXf4444444444444      44445XXeXl4444444444444444      44444444444444444444444444      4444444440z944444444444444      44444444444444444444444444      44444444444444444444444444      44444444444444444444444444      44444444444444444774444444      4444444444440dX54444444444      444444444XX944444444444444   ",
"   4444405uvb444447uua44444471o    444444444444eXXw444444XX74      444444449XXXXha4444agXw444      4444445huxj4444444sfXXh044      444444444444447upXXXXXs444     $44444444440hXXl44444444444      447dXXg940dX74444444444444      4447XXkcX7444444wua4444444      44lXX64444440XXXs444444444      4444444498XXs4444444444444      44444444w74444444444444444      44444444444444444444444444      44444444444444444444444444      44444444444444445Xc4444444      4444444444445XXs4444444444      444444440XX744444444444444   ",
"   444444gXl444444cXXl444444cXn    4444444444446XXX744444fX54      44444444beXkeX8u44445XXs44      44444aXXXXXX8piujs40cXXds4      44444444447upXXXXX65744444      4444444447dXfs444444444444      ahXXXw0445Xc44444444444444      440dXe06X0444449XXXs444444      44cXXX444444qXXXl444444444      44444444qXXXd0444444444444      4444444kXXha44444444444444      44444444444444444444444444      44444444444444444444444444      44444444444444arXXe4444444      44444444444aXXw44444444444      444444447XX0444440pz044444   ",
"   444444cXc444444gXXc444444gXo    4444444444445XwX8044446Xw4      4444444447X805gXd7444fXp44      444449XXp5c6XXXXXXXdpdXXl4      4444447upXXXXgcls444444444      444444445XXk04444444444444    $1XXXes444aXga444444ahs44444      44cXXs4XX44444s8XXXs444444      44gXgX744444wXgXc444444444      44444444sXfXXh444444444444      444444sXXXX8u4444444444444      444444qhuxj044444444444444      4444444444444444440ytr5444      4444444444444q8XXk04444444      444444444446Xg044444444444      44444444lXX444444cXX644444   ",
"   444444lX844444sX6g844444sXX>    4447hh444444lX5wXp4444wX64      4444444444kXw4acXXha47XX94      444444lXXh044a7lw6gXXXXX04      4444sXXXXgcls4444444444444      4444440pXg9444444444444444   .mXXgl444446Xl444440uXX8s4444      4lXXl4aX644440rX6XX444M444      4sXXwX544444eXkX8444444444      qi4b44444X8lXXl44444444444      4444444cXegXXd744444444444      444444fXXXXX8piuyj44444444      444444444444440ytrXXXXN444      444444444444wXXg9444444444      4444444444qXX9444444444444      444444445X644444lXgXk44444   ",
"   444444sXXs4444lX5cXs4444lX&     4445XXl444447Xk4eX54445Xd4      44444444440gXs447fX8u4cX80      4444444seXd744444444795l44      44447XXhq44444444444444444      4444478Xea4444444444444444   :XXk044444qXe444447dXXXXk4444      sXXc447Xk4444wX65Xf444b444      4lXfsX644440XgsXXs44444444     BXXw444444fX4cX8s4444444444      4444444agXswXXXha444444444      444447XXgXXXXXXXXXXdptuja4      44444444440ytrXXXXXXekV444      4444444444arXXea4444444444      4444444440dX64444444044444      444444446Xk4444sXXwX544444   ",
"   4444444gXl4444cX7lXl4444cXn     44446XXs4444aX64agX7447XX4      440x4444444lXp44445XXd9gXw      444444440kXXu4444444444444      44447XXXXdixa4444444444444      44445XXw444444sjuip8d44444    2=4444440dX7444ahXX66Xga4444     $dXf044lX5444qXg0wX64444444      4cXk4gX4444qXc4gXl44444444     &XXXq444446X70gXr0444444444      444444445Xp4s6XX8u44444444      444440kXXu07l56eXXXXXXXX74      4444440ytrXXXXXXewq0444444      444444444q8XXw444444444444      4444444445XXs444444qdi4444      44444444eX54440rXl5X744444 CZ",
"   4444444cXc4444gX47Xc4444gXo    A44440gXr04444XX44qX804aXX7      40rXps444444eX94444a6XXXXX>     44444444449gXp044444444444      444440qweXXXXdixa444444444      44arXgq0jxuprXXXXXXXX74444      4444445Xk44458Xfq7XX544444     nXXs4445Xq44a8X746Xw4444444      4gX94cX74445Xl4cXc44444444     %XeX8a44445Xq47XXi444444444      444444444fXq449gXXd7444444      44444449gXp044444s75w6ff44      44444eXXXXXXewq04444444444      44444440iXXgq4444444444444      44444444aXXw44444apXXXw444      44444444XXq444kXc46Xs44444SXX",
"   4444444lX8444sX644X8444sXX>    D444447XXi44446X044kXh44XXq      4a6XXXt044447X8044444qfXXe$     44444444444seX874444444444      4444444440qweXXXXdixa44444      447XXr8XXXXXXg6w598XXw4444      44444aXg047dXX504eXf444b44    oXXl44446Xs44eXw44fX54444444      sXXs4lX54446Xs4lX844444444     :XcwXp4444lX5445XX944444444      4744444447Xd0440wXXXha4444      44444444seX8q4444444444444      44444XXXewq044444444444444      444444srXXea44444444444444      444444446Xg04440uXXeXX7444      4444444aXX7449Xf04fX44444qXXS",
"   4444444sXXs44lX5446Xs44lXg     D4444445XX9444cX7440eXl4eX5      444qfXX8x4444kXw44444405e0      4444444444444wXXt444444444      44444444444440qweXXXX8s444      444fXXX6c5q74444q8XXw44444      444446XlahXX6a44lXX7444444   >XX644444fX44wXe444XX74444444      lXg44sXc444Xg44sXXs4444444     2Xr4eX54447Xc4446X8s4444444      kXpa444444cX544447eXX8u444      4444444444wXXt444444444444      44444XXXrty044444444444444      4444498XX54444444ajzup0444      4444444qXX9444qdXgl5Xc4444      44444447XX44s8X744Xf4444a8XC$",
"   44444444gXl44cX7445Xl44cXc     A44444446X8s445Xl444sXXs6Xk      444405XXXps440gXs444444444      447uja44444444qgXra4444444      444444444444444440w8XX7444      444F7a444444444wXXgq444444      4444qX6l8Xfq44408Xc4444444  $-X&044444Xf47Xga447XXa4444444      cXc444g8447Xc444gXl4444444     .XX4agX7440X64440gXr0444444     SXXXXu44444agXa44444lgXXe44      44444444444qgXra4444444444      44444lcgXXXXrty04444444444      4440iXXg7447yuhpXXXXXX9444      4444440dX644apXXc0a8ga4444      44444445Xf40rX544sX644446X&> ",
"   44444444cXc44gX4447Xc44gXl      44444440gXr049X54444lXdwX6      444444a6XXXt04lXr444444444      44eXXXXrpuxj044aeX8q444444      444444444444447upXXXXX7444      4444444444444srXXea4444444      44408XXXX504444kXga4444444  oXX=44444sX608Xq444qXX44444444      gXl444cXs45Xl444cXc4444444     =XXa49Xd044XX44447XXw444444     =XXfXXd74444lXp4444440kgs44      444444444444aeX8q444444444      44444444slcfXXXXrty0444444      444aXXXip8XXXXXXX6kkXXe444      4444445XXs0uXXf744cX544444      4444444wX64wX6444qX54445XX+  ",
"   44444444lX84sX64444X84sXXs      444444447XXw47X644444cXXX8      44444444qfXX8x46Xl44444444      4a6gXXXXXXXXXXpiudXX544444      44444444447upXXXXXXfk90444      44444444444498XXw444444444      4444kXX6a444447XX544444444   @. 444447X56Xw44445Xe44444444     =XXs444lXl46Xs444lX84444444      XX744kXh446X04444wXXq44444      cX8s6XXha444eXq4444444G444      440044444444445XXt04444444      444444444444a9kfXXXXrts444      4444cXXXXXf65l7044q8X60444      44444aXXwqdXg54447Xf444444      44444446XwqXg04445Xl447XXk   ",
"   44444444sXXslX544446XslXg4      444444444wXXq4Xd444440fXXX$     44444444405XXXp9X80444H444      444447q5k6XXXXXXXXXXq44444      4444447upXXXXXXfk9a4444444      44444444440iXXgq4444444444      44444wq4444444eXf444444444      444445XdXe04444kX644444444     2Xg44447Xc4Xg4444sXXs444444      gXl440eXl4kX744444eX8a4444      agXk4qfX8u447X80444444b444      44wX8ptuja444447gXrs444444      4444444444444444a9kfXX5444      44447k57s44444440iXX544444      444446XXrXXca4444fX7444444=-*   4444444fXk8Xq4444kX7408Xe0   ",
"   444444444gXlcX744445XlcXc4      4444444444eX8agX4444447Xgw$     44444444444a6XXX8Xk4444444      44H4444444407956eXXf444444      4444sXXXXXXfk9a44444444444      444444444srXX6044444444444      4444444444444lXX7444444444      44444kXXgs444446X544444444     %Xc44444X87Xc44444gXl444444      6Xw444sgXs5Xl44444agX64444      45XX7405XXr74kXw4444444444      408XXXXXXXXrhuxj06X8944444      44444444444444440ytrXX5444      444444444444444srXfs444444      44440gXXXf7444445Xc444440iXXX+  4444444XX8Xw444446Xa46Xgs4   ",
"   444444444cXkgX44444qXcgXl4      4444444444agXr6Xs444444s04      4444444444444qfXXXe4444444      444444444444444444as444444      44447XXfk9a444444444444444      44444444l8XX54444444444444      44444444444408Xc4444444444      444449fX9444444XXl44444444     XXl444446XcXl44444cXc444444      wX644449Xr9X54444447944444      44fXr444a6XXiagXs444444444      4sXX8w75k6gXXXXXXdXXw44444      4444444444440ytrXXXXfkJ444      44444444444444lXXc04444444      44444sgX5444444aXga4444l8XXB=   444444sXXXe444444XX45XX944   ",
"   444444444lX8X6444440X8XXs4      44444444444qXXXX7444444444      4444444444444405Xe04444444      44444444444444444444444444      4444a9a4444444444444444444      4444440hXXg744444444444444      444444444444kXga4444444444      444444474444440XX744444444    =XXs444445XXXs44444lX8444444      5Xd44444cXrX64444444444444      447XXl4444qfX8rXp444444444      447gXXi04444795c6XXXa44444      44444444axidXXXXfk9a444444      4444444444440hXXl444444444      444444sa44444446X54447rXXg2     44444405fga444440X6sXXk444   ",
"   444444444sXXX5444444eXXg44      444444444444wXXX5444444444      4444444444444444a044444444      44444444444444444444444444      44444444444444444444444444      4444445XX60444444444444444      444444444447XX544444444444      444444444444447XX044444444    2Xg4444447XXg444444sXXs44444      7XX444440fXXr4444444444444      444cX80444405XXXga44444444      44406XXds444444444as444444      444449idXXXXew9a4444444444      444444444447dXfs4444444444      44444444444444qXf440iXXXca      444444444a4444447X6dXe0444   ",
"   4444444444gXX744444bwXXc44      4444444444444eXcs444444444      44444444444444444444444444      44444444444444444444444444      44444444444444444444444444      444444aX544444444444444444      44444444444eXf444444444444      444444444444449XX444444444    +294444444559444444455s44444      sXX744444sXXc4444444444444      444agXk444444a6gs444444444      444445XXXz4444444444444444      44444XXXewq044444444444444      44444444445XXk0444444447yz      44444444444440dX74l8XXf744      4444444444444444lXXXXs4444   ",
"   44444444444444444444444444      44444444444440a44444444444      44444444444444444444444444      44444444444444444444444444      44444444444444444444444444      4444444a444444444444444444      44444444444kX7444444444444      44444444444444akc444444444      444444444444KK44444L444444      4XXq4444447a44444444444444      44445XX7444444404444444444      444444sfXXh0444444L4444444      44444XXXpuj444444444444444      44444444PpXg9444ajutpdXXXX@     44444444444445XcsrXXg54444      4444444444444444wXXXl44444   ",
"   44444444444444444444444444      44444444444444444444444444      44444444444444444444444444      44444444444444444444444444      44444444444444444444444444      44444444I44444444444444444      44444444444494444444444444      44444444444444444444444444      44444444444444444444444444      4fX5444444H444444444444444      44444fXr444444444444444444      44444440cXXds4444444444444      44444eXXXXXXrty04444444444      4444444a8X8tuprXXXXXXXXXXf+     444444444444sXXhXXXca44444      44444444444444447kXc444444   ",
"   44444444444444444444444444      44444444444444444444444444      44444444444444444444444444      44444444444444444444444444      44444444444444444444444444      44444444444444444444444444      44444444444444444444444444      44444444444444444444444444      44444444444444444444444444      46Xk4444444444444444444444      444447XXl44444U44444444444      444444444lXXXu444444444444      4444440qweXXXXXXrty0444444      44444444gXXXXXXXXXg6w57s44      44444444444HYXXXXf74444444      44444444444444444400444444   ",
"   44444444444444444444444444      44444444444444444444444444      44444444444444I44444444444      44444444444444444444444444      44444444444444444444444444      44444444444444444444444444      44444444444LK4444444444444      44444444444444444444444444      44444444444444444444444444      45eq4444444444444444444444      444444cX804444444444444444      4444444444sfXXp04444444444      44444444440qweXXXXXXrts444      44444444wXXX6k5q7444444444      444444444444sgXg5444444444      44444444444444444444444444   ",
"                                             TTTDREEE                          WQQQ                                                                                                                          !~~~                                                                                   $                                    @&X:                                 $nXXO=                             $.SCXXXX2                 $=$                                  >:@                                             ",
"                                                                                                                                                                                                                                                                                                                                          2X&$                                  o&XB                                 @+:B2                                                                                                      ",
"                                                                                                                                                                                                                                                                                                                                           C>                                    >C+                                                                                                                                            "
};
