/* XPM */
static char *result[] = {
/* columns rows colors chars-per-pixel */
"512 32 53 1 ",
"  c #FFEC00",
". c #9F9300",
"X c #EFDD00",
"o c #AFA200",
"O c black",
"+ c #504A00",
"@ c #CFC000",
"# c #403B00",
"$ c #DFCE00",
"% c #8F8400",
"& c #100F00",
"* c #908500",
"= c #3F3A00",
"- c #302C00",
"; c #605900",
": c #C0B200",
"> c white",
", c #EFEFEF",
"< c #AFAFAF",
"1 c gray56",
"2 c #101010",
"3 c #909090",
"4 c #3F3F3F",
"5 c gray19",
"6 c #606060",
"7 c #C0C0C0",
"8 c gray6",
"9 c gray25",
"0 c #DFDFDF",
"q c gray75",
"w c #505050",
"e c gray31",
"r c gray50",
"t c gray81",
"y c #5F5F5F",
"u c gray44",
"i c gray69",
"p c #808080",
"a c #202020",
"s c #9F9F9F",
"d c #6F6F6F",
"f c #807600",
"g c #BFB100",
"h c gray12",
"j c #2F2F2F",
"k c #A0A0A0",
"l c #5F5800",
"z c #2F2B00",
"x c #1F1D00",
"c c #6F6700",
"v c #706800",
"b c #7F7600",
"n c #4F4900",
/* pixels */
"                                                                                                                                                                                                                                                                                                                                                                                                                                                                                                                                ",
"                                                                                  .X                        o                                                                                                                                                                                                                                    .O+                       @O#$                                                                                                                                                 ",
"                                                                                 .O+                       @O#$                                                                                                                                                                                                        Xo                        %OOo                      %OO&*                       =-;*:                                                                                                                    ",
"   >>>>>>>>>>>>>>>>>>>>>>>>>>      >>>>>>>>>>>>>>>>>>>>,<>>>>      >>>>>>>>>>>>>>1OO<>>>>>>>>      >>>>>>>>1OO23>>>>>>>>>>>>>      >>>>45637>>>>>>>>>>>>>>>>>      >>>>>>>>>>>>>>>>>>>>>>>>>>      >>>>>>>>>>>>>>>>>>>>>>>>>>      >>>>>>>>>>>>>>>>>>>>>>>>>>      >>>>>>>>>>>>>>>>>>>>>>>>>>      >>>>>>>>>>>>>>>>>>><25>>>>      >>>>>>>>>>>>>>>4O2,>>>>>>>      >>>>>>>>><8OO90>>>>>>>>>>>      >>>>4OOOOO5637>>>>>>>>>>>>      >>>>>>>>>>>>>q3650>>>>>>>>      >>>>>>>>>>>q,>>>>>>>>>>>>>      >>>>>>>>>>>>>>>>>>>>>>>>>>   ",
"   >>>>>>>>>>>>>>>>>>>>>>>>>>      >>>>>>>>>>>>>>>>>>><25>>>>      >>>>>>>>>>>>>>>4O2,>>>>>>>      >>>>>>>>><8OO90>>>>>>>>>>>      >>>>4OOOOO5637>>>>>>>>>>>>      >>>>>>>>>>>>>q3650>>>>>>>>      >>>>>>>>>>>q,>>>>>>>>>>>>>      >>>>>>>>>>>>>>>>>>>>>>>>>>      >>>>>>>>>>>>>>>>>>>>>>>>>>      >>>>>>>>>>>>>>>>>>><OO>>>>      >>>>>>>>>>>>>>>08Ow>>>>>>>      >>>>>>>>>>,eOO23>>>>>>>>>>      >>>>qr48OOOOOOO563t>>>>>>>      >>>>>>>,7365OOOOOy>>>>>>>>      >>>>>>>>>,uO50>>>>>>>>>>>>      >>>>>>q26i>>>>>>>>>>>>>>>>   ",
"   >>>>>>>>>>>>>>>>>>>>>>>>>>      >>>>>>>>>>>>>>>>>>><OO>>>>      >>>>>>>>>>>>>>>08Ow>>>>>>>      >>>>>>>>>>,eOO23>>>>>>>>>>      >>>>qr48OOOOOOO563t>>>>>>>      >>>>>>>,7365OOOOOy>>>>>>>>      >>>>>>>>>,uO50>>>>>>>>>>>>      >>>>>>q26i>>>>>>>>>>>>>>>>      >>>>>>>>>>>>>>>>>>>>>>>>>>      >>>>>>>>>>>>>>>>>>>0OOq>>>      >>>>>>>>>>>>>>>>1OO<>>>>>>      >>>>>>>>>>>><8OO90>>>>>>>>      >>>>>>>>0<r48OOOOOOO9u>>>>      >>,7pwaOOOOOOO8OOO0>>>>>>>      >>>>>>>>qaOOO2>>>>>>>>>>>>      >>>>>,aOOO>>>>>>>>>>>>>>>>   ",
"   >>>>>>>>>>>>>>>>>>>>>>>>>>      >>>>>>>>>>>>>>>>>>>0OOq>>>      >>>>>>>>>>>>>>>>1OO<>>>>>>      >>>>>>>>>>>><8OO90>>>>>>>>      >>>>>>>>0<r48OOOOOOO9u>>>>      >>,7pwaOOOOOOO8OOO0>>>>>>>      >>>>>>>>qaOOO2>>>>>>>>>>>>      >>>>>,aOOO>>>>>>>>>>>>>>>>      >>>>>>>>>>>>>>>>>>>>>>>>>>      >>>>>>>>>>>>t>>>>>>>8O1>>>      >>>>>>>>>>>>>>>>>4O2,>>>>>      >>>>>>>>>>>>>,eOO23>>>>>>>      >>>>>>>>>>>>>0<r48OOOO>>>>     owaOOOOOOO84r<0yOOs>>>>>>>>      >>>>>>,uOOO8Od>>>>>>>>>>>>      >>>>>dOOO4>>>>>>>>>>>>>>>>   ",
"   >>>>>>>spq>>>>>>0ppq>>>>>>$ff$  >>>>>>>>>>>>t>>>>>>>8O1>>>      >>>>>>>>>>>>>>>>>4O2,>>>>>      >>>>>>>>>>>>>,eOO23>>>>>>>      >>>>>>>>>>>>>0<r48OOOO>>>>     owaOOOOOOO84r<0yOOs>>>>>>>>      >>>>>>,uOOO8Od>>>>>>>>>>>>      >>>>>dOOO4>>>>>>>>>>>>>>>>      >>>>>>>>>>>>>>t70>>>>>>>>>      >>>>>>>>>>q9Od>>>>>>4Oy>>>      >>>>>>>>,3,>>>>>>08Ow>>>>>      >>>>>>>>>>>>>>><8OO90>>>>>      >>>>>>>>>>>>>>>>>tuOOO>>>>     gOOOOherq0>>>,5O8t>>>>>>>>>      >>>>>qaOOj<O8,>>>>>>>>>>>>      >>>>qOO4O4>>>>>>0k,>>>>>>>   ",
"   >>>>>>>yO4>>>>>>sOO4>>>>>>.OOX  >>>>>>>>>>q9Od>>>>>>4Oy>>>      >>>>>>>>,3,>>>>>>08Ow>>>>>      >>>>>>>>>>>>>>><8OO90>>>>>      >>>>>>>>>>>>>>>>>tuOOO>>>>     gOOOOherq0>>>,5O8t>>>>>>>>>      >>>>>qaOOj<O8,>>>>>>>>>>>>      >>>>qOO4O4>>>>>>0k,>>>>>>>      >>>y990>>>>>>yOOe>>>>>>>>>      >>>>>>>>>>1OOOs>>>>>rO5>>>      >>>>>>>,5Oak>>>>>>1OO<>>>>      >>>>>>>>>>>>>>>>,eOO2<>>>>      >>>>>>>>>>>>>><uaOOO8y>>>>      drq,>>>>>>>t2Oj,>>>>>>>>>>      >>>,uOOOr>eOr>>>>>>>>>>>>>      >>>,aOjqOd>>>>>>4OOr>>>>>>   ",
"   >>>>>>>sOO>>>>>>yOOO>>>>>>lOz   >>>>>>>>>>1OOOs>>>>>rO5>>>      >>>>>>>,5Oak>>>>>>1OO<>>>>      >>>>>>>>>>>>>>>>,eOO2<>>>>      >>>>>>>>>>>>>><uaOOO8y>>>>      drq,>>>>>>>t2Oj,>>>>>>>>>>      >>>,uOOOr>eOr>>>>>>>>>>>>>      >>>,aOjqOd>>>>>>4OOr>>>>>>      >>0OOO1>>>>>>jOO2>>>>>>>>>      >>>>>>>>>>qOhOOt>>>><OO>>>      >>>>>>><OOOOa<>>>>>4O2,>>>      >>>>>0377,>>>>>>>>s8OOw,>>      >>>>>>>>>>0kw2OOOjrt>>>>>>      >>>>>>>>>>sOOy>>>>>>>>>>>>      >>qaOOjt>qOh,>>>>>>>>>>>>>      >>>dOOt1Or>>>>>1OOO4>>>>>>   ",
"   >>>>>>>0OOq>>>>>hOeOq>>>>>xOc   >>>>>>>>>>qOhOOt>>>><OO>>>      >>>>>>><OOOOa<>>>>>4O2,>>>      >>>>>0377,>>>>>>>>s8OOw,>>      >>>>>>>>>>0kw2OOOjrt>>>>>>      >>>>>>>>>>sOOy>>>>>>>>>>>>      >>qaOOjt>qOh,>>>>>>>>>>>>>      >>>dOOt1Or>>>>>1OOO4>>>>>>      >><OOOe>>>>>>OhOO<>>>>>>>>      >>>>>>>>>>>OasO2,>>>0OOq>>      >>>>>>>>4OdeOO9q>>>08Ow>>>      >>>>>1OOOOO299ppk7704OO2>>      >>>>>>>tp5OOO8es0>>>>>>>>>      >>>>>>>>>dOOs>>>>>>>>>>>>>      ,uOOOr>>>4Os>>>>>>><>>>>>>      >>qOOr>rOs>>>>02OhOr>>>>>>   ",
"   >>>>>>>>hOr>>>>0OjsOr>>>>0OOg   >>>>>>>>>>>OasO2,>>>0OOq>>      >>>>>>>>4OdeOO9q>>>08Ow>>>      >>>>>1OOOOO299ppk7704OO2>>      >>>>>>>tp5OOO8es0>>>>>>>>>      >>>>>>>>>dOOs>>>>>>>>>>>>>      ,uOOOr>>>4Os>>>>>>><>>>>>>      >>qOOr>rOs>>>>02OhOr>>>>>>      >>rO48O>>>>>qOejOd>>>>>>>>      >062<>>>>>>jO,yO5>>>>8O1>>      >>>>>>>>08Otq4OOw0>>1OO<>>      >>>>>jO244jOOOOOOOOOOOOj>>      >>>>06aOOOhdq>>>>>>>>>>>>>      >>>>>>>,9O8t>>>>>>>>>>>>>>     gaOOjt>>>qOj>>>>>>09O6>>>>>      >,aOj>>yOq>>>>4OrjOr>>>>>>   ",
"   >>>>>>>>yO4>>>>sOd0O4>>>>sOO    >062<>>>>>>jO,yO5>>>>8O1>>      >>>>>>>>08Otq4OOw0>>1OO<>>      >>>>>jO244jOOOOOOOOOOOOj>>      >>>>06aOOOhdq>>>>>>>>>>>>>      >>>>>>>,9O8t>>>>>>>>>>>>>>     gaOOjt>>>qOj>>>>>>09O6>>>>>      >,aOj>>yOq>>>>4OrjOr>>>>>>      >>4OdeO<>>>>1OrdOa>>>>>>>>      >,jO2t>>>>>yOq>4O6>>>4Oy>>      >>>>>>>>>1O5>>shOO60>4O2,>      >>>>><8Oaq>>>qq1ry4jOOO1>>      >>>>qOO410>>>>>>>>>>>>>>>>      >>>>>>taOj,>>>>>>>>0iq>>>>   XvOOOr>>>>>hOq>>>>>12OOOr>>>>      >dOOt>>4Oq>>>1Oj>OO<>>>>>>   ",
"   >>>>>>>>sOO>>>>yO<>hO>>>>yO=    >,jO2t>>>>>yOq>4O6>>>4Oy>>      >>>>>>>>>1O5>>shOO60>4O2,>      >>>>><8Oaq>>>qq1ry4jOOO1>>      >>>>qOO410>>>>>>>>>>>>>>>>      >>>>>>taOj,>>>>>>>>0iq>>>>   XvOOOr>>>>>hOq>>>>>12OOOr>>>>      >dOOt>>4Oq>>>1Oj>OO<>>>>>>      >>8OssOy>>>>yOqtOOt>>>>>>>      >>t8O5,>>>>1Or>,hO1>>rO4>>      >>>>>>>>>>4Or>>>18O2pt8Ow>      >>>>>>,eOOu,>>>>>>>>>>t,>>      >>>>qOOOawp7,>>>>>>>>>>>>>      >>>>><2Oy,>>>>0ip92OOa>>>>   zOOjt>>>>>sO4>>>>09OOjOOq>>>>      qOOr>>>4O>>>02Ot>OOq>>>>>>   ",
"   >>>>>>>>0OOq>>>hO,>yOq>>>hOb    >>t8O5,>>>>1Or>,hO1>>rO4>>      >>>>>>>>>>4Or>>>18O2pt8Ow>      >>>>>>,eOOu,>>>>>>>>>>t,>>      >>>>qOOOawp7,>>>>>>>>>>>>>      >>>>><2Oy,>>>>0ip92OOa>>>>   zOOjt>>>>>sO4>>>>09OOjOOq>>>>      qOOr>>>4O>>>02Ot>OOq>>>>>>      >tOOt,Oa>>>>jO,>8O1>>>>>>>      >>>qOO9>>>>qOe>>t8Oq><OO>>      >>,>>>>>>>08Ot>>>,r8O2aOO<      >>>>>>>><8Oaq>>>>>>>>>>>>>      >>>>,1yjOOOOOawp7,>>>>>>>>      >>>>rOO1>0ip92OOOOO8OOs>>>   @xb>>>>>>,aOt>>>12OjthO4>>>>>     XaOj>>>>OO>>>4Or>tOOt>>>>>>   ",
"   >>>>>>>>>hOr>>0Oj>>sOr>>0OOg    >>>qOO9>>>>qOe>>t8Oq><OO>>      >>,>>>>>>>08Ot>>>,r8O2aOO<      >>>>>>>><8Oaq>>>>>>>>>>>>>      >>>>,1yjOOOOOawp7,>>>>>>>>      >>>>rOO1>0ip92OOOOO8OOs>>>   @xb>>>>>>,aOt>>>12OjthO4>>>>>     XaOj>>>>OO>>>4Or>tOOt>>>>>>      >sOO>>jOt>>>Oh>>yO4>>>>>>>      >>>>1OOd>>>>Oa>>>sO200OOt>      >t2w0>>>>>>1O5>>>>>0yOOOOr      >>>>>>>>>,eOOu,>>>>>>>>>>>      >>>>>>>>>q1yjOOOOOawp7,>>>      >>>sOO992OOOOOjy1qs2O8s>>>      >>>>>>rOy>>09OOr>1OOt>>>>>     nOOt>>>>Oj>>1Oj>>qOO>>>>>>>   ",
"   >>>>>>>>>yO4>>sOd>>tO4>>sOO     >>>>1OOd>>>>Oa>>>sO200OOt>      >t2w0>>>>>>1O5>>>>>0yOOOOr      >>>>>>>>>,eOOu,>>>>>>>>>>>      >>>>>>>>>q1yjOOOOOawp7,>>>      >>>sOO992OOOOOjy1qs2O8s>>>      >>>>>>rOy>>09OOr>1OOt>>>>>     nOOt>>>>Oj>>1Oj>>qOO>>>>>>>      >dO4>>1O1>>qOe>>sOO,>>>>>>      >>>>>yOOs>>>hO,>>>dO5,OOs>      >jOOO60>>>>>4Or>>>>>>t4Oy>      >>>>>>>>>>>18Oaq>>>>>>>>>>      >>>>>>>>>>>>>>q1yjOOOOr>>>      >>>,OOOOOjy1q>>>>dOOht>>>>      >>>>>,2O0>12Ojt>,2Oy>>>>>>    oOOr>>>>0O4>02Ot>>sOO>>>>>>>   ",
"   >>>>>>>>>sOO>>yO<>>>8O>>yO=     >>>>>yOOs>>>hO,>>>dO5,OOs>      >jOOO60>>>>>4Or>>>>>>t4Oy>      >>>>>>>>>>>18Oaq>>>>>>>>>>      >>>>>>>>>>>>>>q1yjOOOOr>>>      >>>,OOOOOjy1q>>>>dOOht>>>>      >>>>>,2O0>12Ojt>,2Oy>>>>>>    oOOr>>>>0O4>02Ot>>sOO>>>>>>>      >4Od>>tO5>>1Or>>,OOs>>>>>>      >>>>>>jO2t>>eOq>>>>4Ow4Od>      >>s8OO2p,>>>08Ot>>>>>>>t>>      >>>>>>>>>>>>04OOu,>>>>>>>>      >>>>>>>>>>>>>>>>>,kaOOr>>>      >>>>rdsq>>>>>>>,9OOj,>>>>>      >>>>>rOr09OOr>>>rOO0>>>>>>   X&Oj>>>>>qOy>4Or>>>rOj>>>>>>>   ",
"   >>>>>>>>>0OOq>hO,>>>eOq>hOb     >>>>>>jO2t>>eOq>>>>4Ow4Od>      >>s8OO2p,>>>08Ot>>>>>>>t>>      >>>>>>>>>>>>04OOu,>>>>>>>>      >>>>>>>>>>>>>>>>>,kaOOr>>>      >>>>rdsq>>>>>>>,9OOj,>>>>>      >>>>>rOr09OOr>>>rOO0>>>>>>   X&Oj>>>>>qOy>4Or>>>rOj>>>>>>>      >OOs>>>hO,>yOq>>>4Oy>>>>>>      >>>>>>,8O2,>rOr>>>>,hOOO4>      >>>,r8OO23>>>1O5>>>>>>>>>>      >>>>>>>>>>>>>>18Oaq>>>>>>>      >>>>>>>>>>>>>>039OOOOOr>>>      >>>>>>>>>>>>>>t5OOy>>>>>>>      >>>>0O8r2Ojt>>>,2Od>>>>>>>   lOOt>>>>>qOr1Oj>>>>rO4>>>>>>>   ",
"   >>>>>>>>>>hOr0Oh>>>>1Or,OOg     >>>>>>,8O2,>rOr>>>>,hOOO4>      >>>,r8OO23>>>1O5>>>>>>>>>>      >>>>>>>>>>>>>>18Oaq>>>>>>>      >>>>>>>>>>>>>>039OOOOOr>>>      >>>>>>>>>>>>>>t5OOy>>>>>>>      >>>>0O8r2Ojt>>>,2Od>>>>>>>   lOOt>>>>>qOr1Oj>>>>rO4>>>>>>>      tOOt>>>dOs>jO,>>>1O2>>>>>>      >>>>>>>t8O5>qOe>>>>>t8OOO>      >>>>>,dOOOak>>4Or>>>>>>>>>      >>eO59wppi70>>>04OOu,>>>>>      >>>>>>>>>>>quaOOOOO410>>>>      >>>>>>>>>>>>><2OOs>>>>>>>>      >>>>yOOOOr>>>>>yO8,>>>>>>>    ..>>>>>>rOd2Ot>>>>4Oe>>>>>>>   ",
"   >>>>>>>>>>yO4sOy>>>>tO4<OO      >>>>>>>t8O5>qOe>>>>>t8OOO>      >>>>>,dOOOak>>4Or>>>>>>>>>      >>eO59wppi70>>>04OOu,>>>>>      >>>>>>>>>>>quaOOOOO410>>>>      >>>>>>>>>>>>><2OOs>>>>>>>>      >>>>yOOOOr>>>>>yO8,>>>>>>>    ..>>>>>>rOd2Ot>>>>4Oe>>>>>>>      sOO>>>><Oy>Oh>>>>0OOq>>>>>      >>>>>>>>sOO6,Oa>>>>>>sOh1>      >>>>>>>0yOOO5q08Ot>>>>>>>>      >,OOOOOOOOOOOO996aOOr>>>>>      >>>>>>>,k62OOOO8ys,>>>>>>>      >>>>>>>>>>>>rOO8q>>>>>>>>>      >>>>sOOjt>>>>>0OOr>>>>>>>>      >>>>>>rO2Or>>>>>4Or>>>>>>>   ",
"   >>>>>>>>>>sOOyOs>>>>>8OdO4      >>>>>>>>sOO6,Oa>>>>>>sOh1>      >>>>>>>0yOOO5q08Ot>>>>>>>>      >,OOOOOOOOOOOO996aOOr>>>>>      >>>>>>>,k62OOOO8ys,>>>>>>>      >>>>>>>>>>>>rOO8q>>>>>>>>>      >>>>sOOjt>>>>>0OOr>>>>>>>>      >>>>>>rO2Or>>>>>4Or>>>>>>>      dO4>>>>>O2qOe>>>>>hOd>>>>>      >>>>>>>>>dOOshO,>>>>>>q>>>      >>>>>>>>>t4OOO9eO5>>>>>>>>      >,qsrr44hOOOOOOOOOOOt>>>>>      >>>>>s9OOOOOhdq>>>>>>>>>>>      >>>>>>>>>>,6OOj0>>>>>>>>>>      >>>>>sr>>>>>>>eO8,>>>>>>>>      >>>>>>eOOj>>>>>>hOr>>>>>>>   ",
"   >>>>>>>>>>0OOOO0>>>>>eOOOr      >>>>>>>>>dOOshO,>>>>>>q>>>      >>>>>>>>>t4OOO9eO5>>>>>>>>      >,qsrr44hOOOOOOOOOOOt>>>>>      >>>>>s9OOOOOhdq>>>>>>>>>>>      >>>>>>>>>>,6OOj0>>>>>>>>>>      >>>>>sr>>>>>>>eO8,>>>>>>>>      >>>>>>eOOj>>>>>>hOr>>>>>>>      4Od>>>>>eOyOr>>>>>dOa>>>>>      >>>>>>>>>>4OO2Oq>>>>>>>>>>      >>>>>>>>>>>q4OOOOOr>>>>>>>      >>>>>>>>>>>qqsrd448j>>>>>>      >>>>>4OOO410>>>>>>>>>>>>>>      >>>>>>>>>05OOe,>>>>>>>>>>>      >>>>>>>>>>>>>qOOs>>>>>>>>>      >>>>>>ty8t>>>>>>OO<>>>>>>>   ",
"   >>>>>>>>>>>hOOh>>>>>>1OOOq      >>>>>>>>>>4OO2Oq>>>>>>>>>>      >>>>>>>>>>>q4OOOOOr>>>>>>>      >>>>>>>>>>>qqsrd448j>>>>>>      >>>>>4OOO410>>>>>>>>>>>>>>      >>>>>>>>>05OOe,>>>>>>>>>>>      >>>>>>>>>>>>>qOOs>>>>>>>>>      >>>>>>ty8t>>>>>>OO<>>>>>>>      OOs>>>>>sOOOq>>>>>qOO0>>>>      >>>>>>>>>>,jOOOr>>>>>>>>>>      >>>>>>>>>>>>>shOO8t>>>>>>>      >>>>>>>>>>>>>>>>>>>>>>>>>>      >>>>>eys,>>>>>>>>>>>>>>>>>      >>>>>>>>q2OOr>>>>>>>>>>>>>      >>>>>>>>>>>>>4Oh>>>>>>>>>>      >>>>>>>>>>>>>>>,OOq>>>>>>>   ",
"   >>>>>>>>>>>yOOy>>>>>>tOOO>      >>>>>>>>>>,jOOOr>>>>>>>>>>      >>>>>>>>>>>>>shOO8t>>>>>>>      >>>>>>>>>>>>>>>>>>>>>>>>>>      >>>>>eys,>>>>>>>>>>>>>>>>>      >>>>>>>>q2OOr>>>>>>>>>>>>>      >>>>>>>>>>>>>4Oh>>>>>>>>>>      >>>>>>>>>>>>>>>,OOq>>>>>>>     @OOt>>>>>0OOO,>>>>>>8O1>>>>      >>>>>>>>>>>t8OO1>>>>>>>>>>      >>>>>>>>>>>>>>>s8s>>>>>>>>      >>>>>>>>>>>>>>>>>>>>>>>>>>      >>>>>>>>>>>>>>>>>>>>>>>>>>      >>>>>>>0OO8<>>>>>>>>>>>>>>      >>>>>>>>>>>>qOOs>>>>>>>>>>      >>>>>>>>>>>>>>>qOOt>>>>>>>   ",
"   >>>>>>>>>>>>>>>>>>>>>>>>>>      >>>>>>>>>>>t8OO1>>>>>>>>>>      >>>>>>>>>>>>>>>s8s>>>>>>>>      >>>>>>>>>>>>>>>>>>>>>>>>>>      >>>>>>>>>>>>>>>>>>>>>>>>>>      >>>>>>>0OO8<>>>>>>>>>>>>>>      >>>>>>>>>>>>qOOs>>>>>>>>>>      >>>>>>>>>>>>>>>qOOt>>>>>>>     .OO>>>>>>>1rr>>>>>>>t>>>>>>      >>>>>>>>>>>><y0>>>>>>>>>>>      >>>>>>>>>>>>>>>>>>>>>>>>>>      >>>>>>>>>>>>>>>>>>>>>>>>>>      >>>>>>>>>>>>>>>>>>>>>>>>>>      >>>>>>>>hht>>>>>>>>>>>>>>>      >>>>>>>>>>>>hO4>>>>>>>>>>>      >>>>>>>>>>>>>>>thO>>>>>>>>   ",
"   >>>>>>>>>>>>>>>>>>>>>>>>>>      >>>>>>>>>>>><y0>>>>>>>>>>>      >>>>>>>>>>>>>>>>>>>>>>>>>>      >>>>>>>>>>>>>>>>>>>>>>>>>>      >>>>>>>>>>>>>>>>>>>>>>>>>>      >>>>>>>>hht>>>>>>>>>>>>>>>      >>>>>>>>>>>>hO4>>>>>>>>>>>      >>>>>>>>>>>>>>>thO>>>>>>>>      >>>>>>>>>>>>>>>>>>>>>>>>>>      >>>>>>>>>>>>>>>>>>>>>>>>>>      >>>>>>>>>>>>>>>>>>>>>>>>>>      >>>>>>>>>>>>>>>>>>>>>>>>>>      >>>>>>>>>>>>>>>>>>>>>>>>>>      >>>>>>>>q,>>>>>>>>>>>>>>>>      >>>>>>>>>>>sOOq>>>>>>>>>>>      >>>>>>>>>>>>>>>>>t>>>>>>>>   ",
"   >>>>>>>>>>>>>>>>>>>>>>>>>>      >>>>>>>>>>>>>>>>>>>>>>>>>>      >>>>>>>>>>>>>>>>>>>>>>>>>>      >>>>>>>>>>>>>>>>>>>>>>>>>>      >>>>>>>>>>>>>>>>>>>>>>>>>>      >>>>>>>>q,>>>>>>>>>>>>>>>>      >>>>>>>>>>>sOOq>>>>>>>>>>>      >>>>>>>>>>>>>>>>>t>>>>>>>>      >>>>>>>>>>>>>>>>>>>>>>>>>>      >>>>>>>>>>>>>>>>>>>>>>>>>>      >>>>>>>>>>>>>>>>>>>>>>>>>>      >>>>>>>>>>>>>>>>>>>>>>>>>>      >>>>>>>>>>>>>>>>>>>>>>>>>>      >>>>>>>>>>>>>>>>>>>>>>>>>>      >>>>>>>>>>>,44>>>>>>>>>>>>      >>>>>>>>>>>>>>>>>>>>>>>>>>   ",
"   >>>>>>>>>>>>>>>>>>>>>>>>>>      >>>>>>>>>>>>>>>>>>>>>>>>>>      >>>>>>>>>>>>>>>>>>>>>>>>>>      >>>>>>>>>>>>>>>>>>>>>>>>>>      >>>>>>>>>>>>>>>>>>>>>>>>>>      >>>>>>>>>>>>>>>>>>>>>>>>>>      >>>>>>>>>>>,44>>>>>>>>>>>>      >>>>>>>>>>>>>>>>>>>>>>>>>>      >>>>>>>>>>>>>>>>>>>>>>>>>>      >>>>>>>>>>>>>>>>>>>>>>>>>>      >>>>>>>>>>>>>>>>>>>>>>>>>>      >>>>>>>>>>>>>>>>>>>>>>>>>>      >>>>>>>>>>>>>>>>>>>>>>>>>>      >>>>>>>>>>>>>>>>>>>>>>>>>>      >>>>>>>>>>>>>0>>>>>>>>>>>>      >>>>>>>>>>>>>>>>>>>>>>>>>>   ",
"                                                                                                                                                                                                                $                                                                                                                                                                                                                                                                                                               ",
"                                                                                                                                                                                                                                                                                                                                                                                                                                                                                                                                ",
"                                                                                                                                                                                                                                                                                                                                                                                                                                                                                                                                "
};
